<?xml version="1.0" encoding="UTF-8" standalone="no"?>
<!-- Created with Inkscape (http://www.inkscape.org/) -->

<svg
   xmlns:dc="http://purl.org/dc/elements/1.1/"
   xmlns:cc="http://creativecommons.org/ns#"
   xmlns:rdf="http://www.w3.org/1999/02/22-rdf-syntax-ns#"
   xmlns:svg="http://www.w3.org/2000/svg"
   xmlns="http://www.w3.org/2000/svg"
   xmlns:sodipodi="http://sodipodi.sourceforge.net/DTD/sodipodi-0.dtd"
   xmlns:inkscape="http://www.inkscape.org/namespaces/inkscape"
   version="1.1"
   id="svg335"
   width="1272.0046"
   height="324.43832"
   viewBox="0 0 1272.0046 324.43833"
   sodipodi:docname="logo-l-dark.svg"
   inkscape:version="0.92.4 (unknown)">
  <g
     id="g762">
    <path
       inkscape:connector-curvature="0"
       id="path345"
       d="m 112.16074,323.97733 c -22.556605,-2.05158 -41.992505,-6.94297 -60.323305,-15.18147 -1.9894,-0.89414 -6.4187,-3.49376 -10.9588,-6.43194 -11.7601,-7.61056 -14.7697,-8.94819 -19.5645,-8.69529 -4.635,0.24445 -7.0441,1.8152 -9.1141,5.94253 -0.9693,1.93257 -1.9593,5.42841 -1.9593,6.91824 0,3.96262 -4.6347998,5.54572 -8.2739998,2.82611 -2.09420001,-1.56499 -1.96620000816,1.68681 -1.96480001,-49.90793 0,-46.11225 0.013,-46.9891 0.6294,-48.0006 0.3455,-0.56668 1.23060001,-1.46668 1.96680001,-2 1.6379,-1.18647 3.1202,-1.27419 4.2193,-0.24968 0.9302,0.86703 2.9547,6.09973 5.6330998,14.56 1.0726,3.388 2.8298,8.93053 3.9048,12.31673 4.3018,13.54931 12.5824,30.2226 20.3622,41.00006 3.6013,4.98889 10.7295,12.18359 15.9232,16.07182 22.6695,16.97136 53.947105,23.63907 83.040005,17.7023 12.4462,-2.53981 25.3444,-8.23603 36.2096,-15.99123 11.6573,-8.3207 22.982,-20.61183 30.497,-33.09968 11.8141,-19.63161 19.1851,-45.75715 21.6233,-76.64 0.5481,-6.94254 0.7728,-31.97961 0.3432,-38.24 -2.5682,-37.42836 -10.979,-65.61397 -26.8255,-89.895651 -8.8044,-13.49106 -18.3865,-23.34516 -30.3405,-31.2018 -13.4202,-8.82029 -26.9335,-13.94872 -43.1871,-16.3899803 -3.683,-0.55317 -16.4206,-0.56072 -20.96,-0.0124 -17.187605,2.0759603 -31.420005,7.1853203 -45.120005,16.1977903 -5.9999,3.94697 -10.151,7.38529 -16.0197,13.26891 -5.8283,5.8431 -9.8304,10.91215 -13.4769,17.0696 -3.7122,6.2684 -5.2754,10.011381 -9.3897,22.483571 -5.0608,15.34106 -6.917,19.14666 -9.3390998,19.14666 -2.6972,0 -4.148,-1.67272 -4.6096,-5.31451 -0.204,-1.60988 0.045,-13.39229 0.821,-38.792161 0.6126,-20.064 1.1964,-37.17201 1.2973,-38.0178 0.4679,-3.92316 3.1705998,-8.5596303 5.2566998,-9.0178103 1.1201,-0.24601 3.2077,0.72042 3.9254,1.81718 0.2658,0.40614 1.3093,2.9138303 2.3188,5.5726603 2.4682,6.50032 3.8679,9.04526 5.4782,9.96051 1.2597,0.71595 2.6976,0.95993 2.6976,0.45773 0,-0.14715 0.8723,-0.51008 1.9386,-0.80653 3.4447,-0.95772 7.6299,-2.75579 17.2614,-7.41595 9.6655,-4.67668 14.9413,-6.7830003 23.2661,-9.2888903 16.3761,-4.92944 36.994305,-7.38927002 54.730405,-6.52954002 9.4461,0.45789 23.3843,1.78713002 28.3381,2.70250002 26.6925,4.93231 50.1321,16.0099803 70.5123,33.3243203 23.8827,20.28998 41.113,46.557661 51.4014,78.361631 5.1555,15.93668 7.8074,31.44715 8.5078,49.76 l 0.2264,5.92 6.391,-6.4 c 14.5558,-14.57614 26.6927,-28.47326 46.3918,-53.12 25.9356,-32.44965 36.5845,-47.819711 41.587,-60.024781 4.0909,-9.98092 1.9295,-19.12014 -5.3626,-22.67529 -2.5764,-1.25608 -5.7368,-1.97103 -14.9498,-3.38198 -8.7247,-1.33617 -9.8632,-1.73769 -10.8794,-3.83674 -0.3728,-0.77017 -0.8495,-1.45759 -1.0592,-1.5276 -0.2784,-0.0929 -0.2946,-0.37424 -0.06,-1.0421 0.4328,-1.23243 2.568,-2.27946 5.5987,-2.74542 2.7003,-0.41515 22.0925,-0.20501 32.48,0.35197 3.5263,0.18907 12.5316,0.24968 21.44,0.1443 14.0987,-0.16678 15.8462,-0.24861 21.28,-0.99645 7.10767,-0.97821 13.11478,-0.94062 15.83202,0.0991 2.05296,0.78549 3.048,2.18231 3.048,4.27871 0,2.87024 -2.00457,3.88556 -8.80412,4.45932 -9.5356,0.80463 -15.0555,3.45431 -22.678,10.88604 -7.9843,7.7845 -14.6316,15.55095 -35.8779,41.918251 -17.3802,21.56939 -29.3694,36.27704 -40.7845,50.03193 -5.3765,6.47858 -9.9682,12.05131 -10.2038,12.38386 -0.3909,0.5519 4.3788,6.43132 54.6961,67.42078 64.71018,78.435 61.51965,74.59812 66.60358,80.09614 11.02292,11.92076 20.85136,17.94928 32.40864,19.87865 4.46762,0.74583 6.45075,1.5897 7.3248,3.11677 1.54167,2.69363 0.34736,5.57405 -2.76035,6.65738 -2.67469,0.93238 -10.66806,0.75443 -22.80445,-0.50765 -5.76278,-0.5993 -12.66912,-1.10567 -16.48,-1.20826 -7.74825,-0.20864 -25.03452,0.2672 -49.60002,1.36535 -24.9729,1.11635 -37.225,1.31763 -40.2811,0.66176 -3.1557,-0.67725 -4.9966,-1.59978 -5.4692,-2.74077 -0.3202,-0.77296 -0.27,-1.16336 0.3288,-2.55517 0.3887,-0.90355 1.1151,-1.98646 1.6142,-2.40643 1.7487,-1.47143 5.8641,-2.4368 13.7273,-3.2201 13.0641,-1.30137 18.5009,-3.51366 20.3161,-8.26678 0.4611,-1.20727 0.5367,-2.12519 0.4059,-4.92915 -0.2494,-5.34746 -2.056,-10.08608 -6.2482,-16.38833 -2.0058,-3.01535 -12.1909,-16.63703 -18.3168,-24.49727 -15.4258,-19.7928 -63.5777,-78.72 -64.3254,-78.72 -0.1494,0 -3.8446,3.22867 -8.2116,7.17483 -7.7319,6.98681 -7.946,7.21324 -8.1711,8.64 -0.1271,0.80584 -0.531,3.76917 -0.8974,6.58517 -5.2956,40.69786 -25.1966,74.84537 -57.4808,98.62956 -22.285,16.41767 -48.605,26.17856 -80.1106,29.70954 -5.4408,0.60976 -25.5186,0.89946 -30.56,0.44093 z m 437.59992,-0.14051 c -3.58525,-0.98186 -6.37168,-2.67539 -9.46243,-5.75117 -4.84144,-4.81795 -7.21879,-9.78301 -7.28205,-15.20835 -0.0282,-2.41837 0.12105,-3.16355 1.34576,-6.72 0.7576,-2.2 1.82953,-4.85283 2.38208,-5.89517 2.54627,-4.80345 8.08265,-8.82198 14.22304,-10.3237 2.87056,-0.70204 8.76563,-0.68995 11.7536,0.0241 7.61903,1.82077 13.37427,7.46204 15.37932,15.07477 0.70512,2.67712 0.95831,9.3618 0.47991,12.67092 -1.04468,7.22643 -6.77818,12.81254 -15.92432,15.51497 -3.59815,1.06314 -10.12013,1.37351 -12.89491,0.61363 z m 200.15102,-3.35078 c -3.41542,-0.48583 -5.99849,-1.28848 -9.27104,-2.88084 -8.99187,-4.37523 -14.50124,-12.61017 -15.50188,-23.17081 -1.52468,-16.09153 8.57308,-29.75784 23.80275,-32.21465 3.85584,-0.62201 10.55468,-0.23903 14.09913,0.80608 6.79674,2.00404 12.71536,6.60893 16.44781,12.79691 4.31232,7.14934 5.05401,18.70001 1.73453,27.01329 -2.70506,6.77459 -8.75415,12.99053 -15.18455,15.60342 -4.44157,1.80477 -11.51552,2.7025 -16.12675,2.0466 z m 10.39446,-7.1872 c 7.07088,-1.93703 12.78071,-7.92109 14.78548,-15.49562 0.48486,-1.8319 0.64739,-3.45008 0.64739,-6.44592 0,-4.58195 -0.63667,-7.58327 -2.3177,-10.92593 -2.81037,-5.58834 -8.17776,-9.98261 -13.81737,-11.31229 -2.35543,-0.55534 -8.13136,-0.62918 -10.54755,-0.13483 -0.93268,0.19082 -3.02487,0.98463 -4.64932,1.76401 -5.12633,2.45949 -9.01334,7.03907 -10.83801,12.76904 -1.02224,3.21008 -1.35776,8.30013 -0.78451,11.90115 1.48275,9.31399 8.52179,16.72935 17.39923,18.32941 2.21581,0.39936 7.95472,0.1448 10.12236,-0.44902 z M 659.20065,291.1973 v -28.64 h 3.52 3.52 v 28.64 28.64 h -3.52 -3.52 z m 21.28,13.832 c -7.04,-8.12733 -12.8,-14.86474 -12.8,-14.97197 0,-0.10726 5.616,-6.33707 12.48,-13.84402 l 12.48,-13.64901 4.27875,-0.003 4.27878,-0.003 -2.17977,2.32 c -1.19888,1.276 -6.86832,7.26409 -12.59879,13.30687 -5.73043,6.04279 -10.46438,11.11095 -10.51984,11.26263 -0.0815,0.22275 13.20423,15.45107 24.35011,27.9105 l 2.21856,2.48 -4.59392,-0.0157 -4.59388,-0.0154 -12.8,-14.77696 z m 135.83999,-13.832 v -28.64 h 3.50499 3.50499 l 10.60515,14.48 c 5.83283,7.964 10.70026,14.51622 10.81651,14.56051 0.11623,0.0443 4.81072,-6.47174 10.43219,-14.48001 l 10.22083,-14.5605 h 3.29767 3.29766 v 28.64 28.64 h -3.51789 -3.51788 l -0.0821,-22.86035 -0.0821,-22.86035 -10.03996,14.07612 c -6.80602,9.54212 -10.20052,14.04519 -10.5384,13.98013 -0.27418,-0.0528 -5.0442,-6.34745 -10.60007,-13.98809 l -10.10156,-13.89208 -0.0822,22.7723 -0.0821,22.77232 h -3.51789 -3.51785 z m 93.11999,0 v -28.64 h 22.56 22.56 v 28.64 28.64 h -3.52 -3.52 v -25.28 -25.28 h -15.52 -15.52 v 25.28 25.28 h -3.52 -3.52 z m 75.22397,28.4105 c 0.013,-0.1378 5.5212,-13.0665 12.24,-28.7305 l 12.216,-28.48 h 3.04 3.04 l 12.2162,28.48 c 6.719,15.664 12.227,28.588 12.24,28.72 0.013,0.132 -1.6682,0.23651 -3.7362,0.23222 l -3.76,-0.008 -3.6456,-8.63222 -3.6457,-8.63222 -12.9943,0.008 -12.9944,0.008 -3.5522,8.55241 -3.5522,8.55242 -3.5678,0.0905 c -1.9623,0.0498 -3.557,-0.0224 -3.5438,-0.16 z m 37.3242,-24.0105 c -0.071,-0.132 -2.3452,-5.52624 -5.0533,-11.98723 -3.042,-7.25766 -5.0151,-11.58388 -5.1629,-11.31981 -0.3063,0.54728 -9.852,23.23117 -9.852,23.41168 0,0.0745 4.5445,0.13536 10.0989,0.13536 5.5544,0 10.0406,-0.108 9.9693,-0.24 z m 47.7718,-4.4 v -28.64 h 3.52 3.52 v 12.32 12.32 h 15.68 15.68 v -12.32 -12.32 h 3.52 3.52 v 28.64 28.64 h -3.52 -3.52 v -12.96 -12.96 h -15.68 -15.68 v 12.96 12.96 h -3.52 -3.52 z m 82.88,0 v -28.64 h 3.5179 3.5179 l 0.082,22.75344 0.082,22.75344 17.2651,-22.76425 17.2652,-22.76423 3.0548,0.0908 3.0549,0.0908 0.082,28.56 0.082,28.56 h -3.5196 -3.5195 l -0.082,-22.75466 -0.082,-22.75467 -17.265,22.75467 -17.265,22.75466 h -3.135 -3.135 z m 81.3799,24.8896 c 8.9953,-12.68963 12.7334,-18.0441 12.8998,-18.4777 0.1164,-0.30336 0.011,-0.4919 -0.2759,-0.4919 -0.7808,0 -4.3891,-2.50224 -6.0142,-4.17066 -3.1136,-3.19667 -4.5764,-6.93126 -4.5708,-11.66934 0.01,-5.30323 1.6433,-9.3818 5.2165,-12.99695 3.2655,-3.30378 7.6484,-5.17249 13.2847,-5.66403 1.584,-0.13814 6.084,-0.19208 10,-0.11987 l 7.12,0.1313 v 28.60478 28.60477 h -3.52 -3.52 v -10.56774 -10.56775 l -5.3296,0.0877 -5.3296,0.0877 -7.2508,10.4 -7.2507,10.4 -4.0658,0.0896 -4.0658,0.0896 z m 30.6201,-35.40448 v -11.31488 l -4.08,-0.21858 c -8.6261,-0.46213 -13.1014,1.3143 -15.7807,6.26402 -1.049,1.93805 -1.0958,2.16751 -1.0975,5.38432 0,3.03051 0.083,3.51978 0.8579,4.98938 1.1214,2.12524 3.9797,4.71648 6.1025,5.53241 1.4658,0.56339 2.4562,0.64698 7.8378,0.66154 l 6.16,0.0166 V 280.68239 Z M 780.16064,194.5573 v -5.28 h -22.88 -22.88 v -28.64 -28.64 h 3.52 3.52 v 25.28 25.28 h 15.19805 15.19808 l 0.0819,-25.2 0.082,-25.2 h 3.52 3.52 l 0.082,25.18986 0.0819,25.18986 3.75808,0.0901 3.75805,0.0901 0.0852,8.56 0.0852,8.56 h -3.36525 -3.36521 z m -104.23391,-4.63864 c -13.34656,-1.88254 -22.71827,-10.99314 -24.76109,-24.07121 -0.58502,-3.74527 -0.196,-10.39475 0.80624,-13.78034 2.84397,-9.60729 9.8543,-16.76508 19.22877,-19.63328 2.6736,-0.818 3.2928,-0.88242 8.64,-0.89884 4.54108,-0.014 6.18844,0.10075 7.78467,0.54201 10.45133,2.88916 17.89993,10.21966 20.56636,20.2403 0.97108,3.64945 1.19037,10.51386 0.46,14.4 -1.13328,6.02988 -3.59206,10.66588 -7.9886,15.06244 -4.17411,4.17412 -8.41805,6.49547 -14.03543,7.67712 -2.85004,0.59953 -8.11398,0.82669 -10.70092,0.4618 z m 10.15392,-7.18512 c 6.09782,-1.66078 11.44848,-6.51225 13.93715,-12.63695 1.768,-4.35102 2.17305,-11.11972 0.94905,-15.85929 -1.9344,-7.49049 -8.16364,-13.79368 -15.49196,-15.67582 -2.64749,-0.67996 -8.45341,-0.6849 -11.07424,-0.009 -7.50291,1.93377 -13.2801,7.87413 -15.41002,15.84524 -0.75821,2.83757 -0.76566,9.59456 -0.0138,12.48 1.57255,6.03465 6.13251,11.76571 11.43712,14.37437 1.59405,0.78392 3.72813,1.53338 5.12,1.79809 2.84186,0.54048 7.96515,0.38686 10.54666,-0.31623 z m 283.79955,7.17198 c -6.48652,-0.75765 -11.91116,-3.31156 -16.55548,-7.79428 -5.51238,-5.32059 -8.18582,-11.51453 -8.57805,-19.87394 -0.41228,-8.78795 2.15479,-15.97317 7.85341,-21.98143 5.86819,-6.18708 12.30119,-8.89857 21.11172,-8.89857 8.6487,0 14.7524,2.32488 20.4407,7.78588 5.3843,5.16921 7.9837,10.63067 8.7135,18.30789 1.064,11.19325 -3.3457,21.30933 -11.9854,27.49509 -5.7378,4.10811 -13.2003,5.87043 -21.0004,4.95936 z m 8.5201,-6.86654 c 6.009,-1.0705 11.744,-5.43819 14.5256,-11.06254 1.7845,-3.60825 2.2662,-5.52298 2.4921,-9.90635 0.2524,-4.89695 -0.358,-8.05558 -2.3484,-12.15279 -1.246,-2.56463 -1.9079,-3.46597 -4.2329,-5.76415 -4.5258,-4.47343 -8.5412,-6.09743 -15.0761,-6.09743 -6.57828,0 -10.6377,1.63973 -15.04573,6.07746 -4.0186,4.0457 -5.79367,7.83235 -6.39642,13.64515 -0.81962,7.90417 1.72893,15.16847 7.04982,20.09471 5.06426,4.68859 11.66073,6.4791 19.03203,5.16594 z M 814.40064,160.6373 v -28.64 h 16.16 16.15999 v 3.36 3.36 h -12.63999 -12.64 v 9.12 9.12 h 11.36 11.35999 v 3.36 3.36 h -11.35999 -11.36 v 9.44 9.44 h 12.96 12.95999 v 3.36 3.36 h -16.47999 -16.48 z m 59.51999,0 v -28.64 h 3.52 3.52 v 12.32 12.32 h 15.68 15.68 v -12.32 -12.32 h 3.52 3.52 v 28.64 28.64 h -3.52 -3.52 v -12.96 -12.96 h -15.68 -15.68 v 12.96 12.96 h -3.52 -3.52 z m 181.75997,16.33948 v -12.30053 l -2.48,1.25553 c -3.9802,2.01503 -6.8295,2.64277 -12.08,2.66141 -4.0714,0.0145 -4.6972,-0.0621 -6.8619,-0.83947 -5.0655,-1.81904 -7.7308,-4.50885 -9.7192,-9.80853 -0.629,-1.67633 -0.678,-2.54237 -0.7857,-13.87893 l -0.1148,-12.09103 3.4608,0.091 3.4608,0.091 0.171,10.72 c 0.1606,10.06938 0.2137,10.82682 0.8735,12.48 1.3234,3.31543 3.6206,5.35792 7.0229,6.2441 4.0693,1.05992 9.1174,0.32396 13.8526,-2.01956 l 3.04,-1.50454 0.16,-12.96 0.16,-12.96 3.44,-0.0908 3.44,-0.0908 v 28.65084 28.65083 h -3.52 -3.52 z m 36.8783,-16.25948 0.082,-28.56 h 3.52 3.52 l 0.084,12.24 0.084,12.24 h 15.5162 15.5162 v -12.32 -12.32 h 3.52 3.52 v 28.64 28.64 h -3.52 -3.52 v -12.96 -12.96 h -15.52 -15.52 v 12.96 12.96 h -3.6817 -3.6817 z m 68.1591,28 c 0.084,-0.308 5.5882,-13.27302 12.2324,-28.81116 l 12.0802,-28.25117 3.0252,0.0912 3.0251,0.0912 12.2472,28.64 12.2471,28.64 -3.6818,0.0906 c -2.3583,0.0581 -3.7577,-0.0321 -3.8929,-0.25071 -0.116,-0.18774 -1.7834,-4.07655 -3.7054,-8.6418 l -3.4945,-8.30047 -12.9993,-0.009 -12.9992,-0.009 -3.6251,8.64 -3.6251,8.64 h -3.493 c -3.1712,0 -3.4789,-0.0516 -3.3409,-0.56 z m 37.0426,-23.67543 c 0,-0.44828 -9.7604,-23.44457 -9.9506,-23.44457 -0.1051,0 -1.14,2.268 -2.2996,5.04 -1.1597,2.772 -3.3998,8.1 -4.978,11.84 l -2.8696,6.8 h 10.0489 c 5.5269,0 10.0489,-0.10594 10.0489,-0.23543 z m 33.92,24.06724 c 0,-0.0925 3.456,-5.05682 7.68,-11.03181 4.224,-5.97499 7.68,-10.98131 7.68,-11.12515 0,-0.14384 -0.7829,-0.64551 -1.7398,-1.11482 -0.9569,-0.46931 -2.7353,-1.79232 -3.9519,-2.94003 -3.6163,-3.41141 -5.1883,-7.09909 -5.1883,-12.17085 0,-5.36566 1.6278,-9.49905 5.1138,-12.98503 1.4753,-1.47532 2.8665,-2.49143 4.5098,-3.29397 4.6669,-2.27913 8.541,-2.78632 19.0164,-2.48958 l 7.04,0.19943 0.082,28.56 0.082,28.56 h -3.6817 -3.6817 v -10.56 -10.56 h -5.2501 -5.2502 l -7.3098,10.55033 -7.3099,10.55033 -3.92,0.01 c -2.156,0.005 -3.92,-0.066 -3.92,-0.15852 z m 32.96,-38.99074 v -11.31894 l -4.08,-0.22285 c -8.9936,-0.49123 -13.6337,1.54755 -16.1725,7.10605 -0.9817,2.14929 -0.99,6.94239 -0.016,9.07384 1.2525,2.74018 3.9514,5.11073 7.0983,6.23485 0.7982,0.28512 3.0763,0.42235 7.1699,0.43194 l 6,0.014 z M 679.36733,59.338129 c -8.73411,-1.08766 -16.39785,-5.86814 -20.51881,-12.79922 -4.67318,-7.85994 -5.44243,-19.43766 -1.91411,-28.80919 2.18512,-5.80394 7.41449,-11.5464003 12.92102,-14.1887803 4.49527,-2.15712 6.69834,-2.58364002 13.34522,-2.58364002 6.26467,0 7.81254,0.24332002 11.80396,1.85553002 2.0409,0.82435 5.47604,3.00715 5.47604,3.47964 0,0.38158 -2.53898,4.6940703 -2.89213,4.9123303 -0.13879,0.0858 -1.32151,-0.42075 -2.62826,-1.12561 -3.45888,-1.8657003 -6.61968,-2.6018003 -11.27961,-2.6268503 -4.32765,-0.0233 -6.78352,0.47906 -9.97117,2.03949 -5.03059,2.4626103 -9.11645,7.6509303 -10.71747,13.6093203 -0.53015,1.97302 -0.67072,3.43504 -0.67072,6.97615 0,7.59143 1.68966,12.05529 6.30121,16.64709 4.35428,4.33559 8.67447,6.01415 15.53815,6.03714 5.49225,0.0184 9.58044,-1.15784 13.35734,-3.84313 l 1.4895,-1.05898 1.42887,2.61011 1.42889,2.61011 -1.39257,1.23579 c -4.1952,3.72292 -13.58963,5.95863 -21.10535,5.0227 z m 129.5631,0.0284 c -13.04694,-1.64924 -22.58189,-10.67344 -24.81034,-23.48137 -0.67968,-3.90627 -0.45395,-10.23823 0.4922,-13.8079 2.11174,-7.96735 7.6414,-14.8053103 14.96995,-18.5117703 0.91389,-0.46221 2.92989,-1.23018 4.48,-1.70661 2.60611,-0.801 3.25225,-0.86758002 8.5784,-0.88393002 6.25545,-0.0192 8.63952,0.39463002 12.74937,2.21309002 6.05539,2.67929 12.02042,8.8537003 14.38432,14.8892203 1.77606,4.53465 1.98496,5.82538 1.968,12.16 -0.0147,5.50315 -0.0768,6.11821 -0.8817,8.73491 -2.68288,8.72212 -8.96943,15.61647 -16.98307,18.62494 -4.30131,1.6148 -10.43049,2.34036 -14.94713,1.76942 z m 9.95021,-7.20054 c 3.40179,-0.912 6.37334,-2.66131 8.95289,-5.27045 3.71059,-3.75311 5.60544,-7.53121 6.43258,-12.82579 0.44499,-2.84851 0.21683,-7.69553 -0.48919,-10.3925 -0.8334,-3.18343 -2.8342,-6.86496 -5.04009,-9.27383 -4.85607,-5.3029203 -11.32935,-7.7035603 -18.55139,-6.8798703 -7.47571,0.85262 -13.27072,4.9288003 -16.59626,11.6737003 -2.16502,4.39116 -2.92102,9.20666 -2.23555,14.24 0.76006,5.58099 2.60714,9.31754 6.56701,13.28473 3.46291,3.4693 6.93901,5.23919 11.84,6.02846 1.66236,0.26771 7.28556,-0.0926 9.12,-0.58445 z m 42.31999,6.66132 c -0.66588,-0.14295 -0.71974,-0.32725 -0.71648,-2.45231 0.003,-1.26376 0.0928,-2.83775 0.20186,-3.49775 0.18416,-1.11399 0.27677,-1.2 1.29238,-1.2 1.56685,0 2.79776,-0.74545 4.23661,-2.56574 4.26054,-5.38999 6.65235,-16.89605 8.28051,-39.8342603 l 0.54512,-7.68 17.2,-0.0828 17.2,-0.0828 v 28.6427803 28.64278 h -3.52 -3.52 v -25.28 -25.2800003 h -10.4 -10.4 l -2.2e-4,0.72 c 0,1.1770203 -1.24887,13.8421503 -1.79018,18.1600003 -1.18275,9.43481 -3.52051,18.92602 -5.82643,23.65489 -1.47968,3.03452 -4.56186,6.39901 -6.70768,7.32212 -1.54214,0.66342 -4.76406,1.09459 -6.07549,0.81305 z M 739.84064,33.437249 V 8.1572487 h -10.08 -10.08 v -3.36 -3.36 h 23.52 23.52 v 3.36 3.36 h -9.92 -9.92 v 25.2800003 25.28 h -3.52 -3.52 z m 201.27999,-3.36 V 1.4372487 h 3.51785 3.51789 l 0.0821,22.7339703 0.0822,22.73398 17.26192,-22.74482 17.26181,-22.7448103 3.0581,0.0908 3.0581,0.0908 0.082,28.5600003 0.082,28.56 h -3.6795 -3.6796 l -0.082,-22.55412 -0.082,-22.55412 -17.11857,22.55412 -17.1177,22.55412 h -3.1223 -3.1223 z m 108.47997,16.33948 v -12.30053 l -2.48,1.25553 c -4.8819,2.47154 -11.3656,3.42225 -16.4087,2.40602 -6.9615,-1.40284 -11.2129,-5.51181 -12.6316,-12.20852 -0.3585,-1.69249 -0.4699,-4.78597 -0.4741,-13.17198 l -0.01,-10.9600003 h 3.52 3.52 v 9.5412303 c 0,5.49175 0.1476,10.3471 0.3479,11.44 0.4219,2.3034 1.9646,5.31202 3.3055,6.44636 4.0814,3.45288 11.3309,3.51649 18.1066,0.15886 l 3.04,-1.50645 0.16,-12.96 0.16,-12.9600003 h 3.52 3.52 l 0.082,28.5600003 0.082,28.56 h -3.6817 -3.6817 z m 39.04,-16.33948 V 1.4372487 h 3.52 3.52 v 12.3200003 12.32 h 15.68 15.68 v -12.32 -12.3200003 h 3.52 3.52 v 28.6400003 28.64 h -3.52 -3.52 v -12.96 -12.96 h -15.68 -15.68 v 12.96 12.96 h -3.52 -3.52 z m 70.7126,26.48 c 0.5082,-1.188 6.0326,-14.112 12.2764,-28.72 l 11.3524,-26.5600003 3.0372,-0.0912 3.0372,-0.0912 10.1559,23.7712003 c 5.5857,13.07416 11.1333,26.04355 12.3279,28.82085 l 2.172,5.04966 -3.8308,-0.0896 -3.8307,-0.0897 -3.5966,-8.48 -3.5967,-8.48 -12.9956,-0.0836 -12.9957,-0.0836 -2.4718,5.84356 c -1.3596,3.21396 -2.9865,7.10356 -3.6154,8.64356 l -1.1435,2.8 h -3.6031 -3.6032 z m 36.4874,-22.05599 c 0,-0.11879 -2.0088,-4.97879 -4.464,-10.8 -2.4552,-5.8212 -4.7,-11.14991 -4.9883,-11.84156 l -0.5244,-1.25755 -3.841,9.09755 c -2.1125,5.00365 -4.3968,10.42955 -5.0761,12.05755 l -1.2352,2.96 h 10.0645 c 5.5355,0 10.0645,-0.0972 10.0645,-0.21599 z m 36.0372,23.81599 c 0.2315,-0.39432 7.6288,-10.92229 12.8066,-18.22667 l 2.6558,-3.74667 -1.9898,-1.04059 c -2.5442,-1.33051 -6.2436,-5.00848 -7.3686,-7.32577 -1.4377,-2.96157 -1.9264,-5.50746 -1.7164,-8.9403 0.1024,-1.672 0.4038,-3.73071 0.6698,-4.57491 1.4211,-4.5089803 4.8949,-8.6448103 8.906,-10.6030903 4.607,-2.24923 8.3186,-2.74073 18.8794,-2.50004 l 7.28,0.16591 v 28.5960703 28.59606 h -3.52 -3.52 v -10.56 -10.56 h -5.3744 -5.3744 l -7.336,10.56 -7.3361,10.56 h -3.9484 c -3.0707,0 -3.8962,-0.0889 -3.7135,-0.4 z m 33.0828,-38.76722 V 8.2228187 l -4.2764,-0.22905 c -5.0331,-0.26957 -7.8999,0.11237 -10.6524,1.41916 -3.4043,1.6162403 -5.5175,4.3933303 -6.2153,8.1680703 -1.0081,5.45332 1.7509,10.37122 7.0387,12.54655 1.647,0.67758 2.2629,0.7351 7.9454,0.7421 l 6.16,0.008 z"
       style="fill:#000;stroke-width:0.31999999" />
    <path
       inkscape:connector-curvature="0"
       id="path503"
       d="m 552.36286,324.42232 c -1.83448,-0.14677 -3.044,-0.43266 -4.82982,-1.14151 -2.67506,-1.06187 -5.18355,-2.85245 -7.78869,-5.55969 -4.25382,-4.42051 -6.43009,-8.74402 -6.87867,-13.66548 -0.26724,-2.93212 0.002,-4.5461 1.42961,-8.5653 0.85884,-2.41818 1.64107,-4.33921 2.25786,-5.5449 1.44681,-2.82827 3.97704,-5.4713 7.20385,-7.52501 1.02034,-0.64939 3.41122,-1.83461 4.53853,-2.24986 3.00232,-1.10591 4.87537,-1.36588 9.2854,-1.28886 2.92714,0.051 3.99677,0.15886 5.59132,0.56302 5.90505,1.49671 10.8154,5.4083 13.56848,10.80864 0.83782,1.64348 1.58728,3.76036 1.886,5.32712 0.57268,3.00363 0.71374,9.44996 0.26735,12.21682 -0.38158,2.36499 -1.17824,4.4342 -2.46461,6.40143 -0.77292,1.18198 -1.41697,1.9508 -2.60817,3.11341 -1.71038,1.66935 -3.34257,2.80399 -5.81515,4.04251 -4.24245,2.12504 -7.94985,2.98625 -13.22285,3.07159 -1.0847,0.0175 -2.17392,0.0158 -2.42044,-0.004 z"
       style="fill: #bf4947;" />
  </g>
</svg>
