<?xml version="1.0" encoding="UTF-8" standalone="no"?>
<!-- Created with Inkscape (http://www.inkscape.org/) -->

<svg
   xmlns:dc="http://purl.org/dc/elements/1.1/"
   xmlns:cc="http://creativecommons.org/ns#"
   xmlns:rdf="http://www.w3.org/1999/02/22-rdf-syntax-ns#"
   xmlns:svg="http://www.w3.org/2000/svg"
   xmlns="http://www.w3.org/2000/svg"
   xmlns:sodipodi="http://sodipodi.sourceforge.net/DTD/sodipodi-0.dtd"
   xmlns:inkscape="http://www.inkscape.org/namespaces/inkscape"
   version="1.1"
   id="svg80"
   width="357.39978"
   height="396.3891"
   viewBox="0 0 357.39978 396.3891"
   sodipodi:docname="new-alg-icon-2.svg"
   inkscape:version="0.92.4 (unknown)">
  <path
     style="stroke-width:1.33333325"
     d="M 14.471341,393.9476 C 8.4075311,390.73431 3.4658611,384.38343 1.5381511,377.32625 -0.03506891,371.56682 -0.65244891,126.75108 0.89609109,122.71569 1.3523811,121.5266 13.352381,112.13303 27.562751,101.84108 l 25.83703,-18.712618 v -15.00202 c 0,-21.20537 -0.53916,-20.80018 27.6782,-20.80018 h 21.506349 l 29.2158,-21.19984 c 16.06869,-11.65992 31.25217,-22.2940796 33.74106,-23.6314796 6.06539,-3.25923004 21.50107,-3.34253004 27.43092,-0.14804 2.33146,1.25598 17.45935,11.8901596 33.61755,23.6314796 l 29.37855,21.34788 h 21.95234 21.95235 l 2.76344,3.51314 c 2.40872,3.06219 2.76344,5.36378 2.76344,17.93036 v 14.41722 l 26,18.907538 26,18.90756 v 39.8706 c 0,34.35972 -0.27879,39.97757 -2.01697,40.64458 -1.10935,0.4257 -2.90935,0.0333 -4,-0.87177 -1.6569,-1.37509 -1.98303,-7.04532 -1.98303,-34.4779 v -32.83216 l -72.66667,72.65749 c -39.96666,39.96162 -72.66666,73.04346 -72.66666,73.5152 0,0.7188 138.84981,101.08623 141.36564,102.18599 3.4506,1.50839 3.96769,-9.21305 3.96769,-82.26734 0,-65.43969 0.27045,-75.99845 1.98303,-77.41976 1.09065,-0.90517 2.89065,-1.29747 4,-0.87177 1.76864,0.67869 2.01697,10.389 2.01697,78.86894 0,75.71832 -0.082,78.25561 -2.693,83.37369 -1.48116,2.90331 -5.18721,6.9294 -8.23568,8.94688 l -5.54265,3.66816 -160.76434,0.28317 C 22.809251,396.55324 19.295261,396.50387 14.471341,393.9476 Z m 322.117329,-6.38765 c 0.37379,-0.6048 -14.4408,-11.94277 -32.9213,-25.19549 -18.48051,-13.25272 -54.05683,-38.76724 -79.0585,-56.69893 l -45.45757,-32.60309 -7.20909,5.24657 c -3.965,2.88561 -28.5643,20.38164 -54.66511,38.88004 -103.599959,73.42434 -97.875319,69.1945 -95.112249,70.27695 3.515,1.37704 313.573579,1.46967 314.423819,0.094 z M 83.537851,330.60175 c 38.790729,-27.5318 70.681799,-50.49139 70.869049,-51.02134 0.18724,-0.52993 -32.21276,-33.35391 -71.999999,-72.94217 L 10.066451,134.65959 9.7260111,255.0673 c -0.31459,111.26533 0.012,125.59228 2.8587399,125.59228 0.23347,0 32.16236,-22.52603 70.9531,-50.05783 z m 87.195259,-61.94217 c 4.31952,-2.93333 8.21592,-5.33333 8.65866,-5.33333 0.44273,0 4.39262,2.53008 8.77752,5.6224 l 7.97256,5.6224 50.62896,-50.61583 50.62897,-50.61581 v -58.9873 -58.987318 l -41,-0.3526 -41,-0.3526 v -3.33333 c 0,-3.27444 0.22348,-3.34511 12.64789,-4 l 12.64788,-0.66667 -24.04853,-17.47739 c -13.22671,-9.61256 -25.42176,-18.21232 -27.10013,-19.11054 -4.04904,-2.1669896 -16.18495,-2.1943796 -20.24436,-0.0457 -4.27836,2.26455 -49.08467,34.6433 -50.00844,36.13799 -0.4019,0.65028 15.6911,1.16232 36.53041,1.16232 31.48341,0 37.50567,0.30956 38.90861,2 1.32426,1.59563 1.32426,2.40437 0,4 -1.43441,1.72836 -10.60165,2 -67.49658,2 l -65.836749,-1e-5 v 58.993498 58.99351 l 50.326759,50.33982 c 27.67971,27.68691 50.51263,50.33983 50.73981,50.33983 0.2272,0 3.94724,-2.4 8.26676,-5.33334 z m -69.90476,-87.42857 c -1.152379,-1.15237 -2.095239,-2.30952 -2.095239,-2.57142 0,-0.26191 0.94286,-1.41906 2.095239,-2.57143 1.82572,-1.82573 8.15747,-2.09524 49.22428,-2.09524 25.92098,0 48.07812,0.36419 49.2381,0.80932 2.73401,1.04913 2.73401,6.66556 0,7.71469 -1.15998,0.44514 -23.31712,0.80932 -49.2381,0.80932 -41.06681,0 -47.39856,-0.2695 -49.22428,-2.09524 z m -0.70665,-27.13486 c -1.046729,-1.95583 -0.874159,-3.09386 0.70929,-4.6773 1.85207,-1.85206 10.78819,-2.0926 77.74252,-2.0926 80.10138,0 81.11048,0.0768 79.95314,6.08814 -0.48318,2.50953 -2.59052,2.58773 -78.75906,2.9225 -76.25516,0.33515 -78.29809,0.27767 -79.64589,-2.24074 z m 0.0253,-26.61926 c -0.990529,-1.85081 -0.874079,-2.93884 0.43039,-4.02145 1.27896,-1.06144 23.96153,-1.38615 79.63864,-1.14001 l 77.85039,0.34416 v 3.33333 3.33333 l -78.28074,0.34398 c -75.77342,0.33294 -78.32421,0.26269 -79.63864,-2.19334 z m 0.68128,-34.245868 c -1.152339,-1.15238 -2.095199,-2.30952 -2.095199,-2.57143 0,-0.26191 0.94286,-1.41905 2.095239,-2.57143 1.57048,-1.57048 4.886,-2.09524 13.2381,-2.09524 8.35209,0 11.66761,0.52476 13.23809,2.09524 2.57448,2.57447 2.57448,2.56839 0,5.14286 -1.57048,1.57048 -4.886,2.09524 -13.23809,2.09524 -8.3521,0 -11.66762,-0.52476 -13.2381,-2.09524 z m 46.66667,0 c -1.15232,-1.15238 -2.09517,-2.30952 -2.09517,-2.57143 0,-0.26191 0.94285,-1.41905 2.09524,-2.57143 1.77688,-1.77689 6.52111,-2.09524 31.22428,-2.09524 16.02097,0 30.07812,0.36419 31.23809,0.80932 2.49528,0.95752 2.76787,4.6652 0.50906,6.92402 -1.14847,1.14846 -9.96403,1.6 -31.2381,1.6 -25.16594,0 -29.95425,-0.31616 -31.73333,-2.09524 z M 53.104521,111.18308 52.733041,93.866022 32.399711,108.67504 c -11.18333,8.14497 -20.33333,15.24947 -20.33333,15.78777 0,0.5383 9.15,9.95279 20.33333,20.92108 l 20.33337,19.94236 0.37148,-18.41305 c 0.20431,-10.12717 0.20431,-26.20573 0,-35.73012 z m 273.398699,33.04005 20.40456,-20.43646 -19.08736,-13.78279 c -10.49804,-7.58053 -19.83735,-14.357578 -20.75401,-15.060128 -1.32359,-1.0144 -1.66667,6.029608 -1.66667,34.219248 0,19.52312 0.15725,35.49659 0.34947,35.49659 0.1922,0 9.53152,-9.1964 20.75401,-20.43646 z"
     id="path152"
     inkscape:connector-curvature="0" />
</svg>
