<?xml version="1.0" encoding="UTF-8" standalone="no"?>
<!-- Created with Inkscape (http://www.inkscape.org/) -->

<svg
   xmlns:dc="http://purl.org/dc/elements/1.1/"
   xmlns:cc="http://creativecommons.org/ns#"
   xmlns:rdf="http://www.w3.org/1999/02/22-rdf-syntax-ns#"
   xmlns:svg="http://www.w3.org/2000/svg"
   xmlns="http://www.w3.org/2000/svg"
   xmlns:sodipodi="http://sodipodi.sourceforge.net/DTD/sodipodi-0.dtd"
   xmlns:inkscape="http://www.inkscape.org/namespaces/inkscape"
   version="1.1"
   id="svg64"
   width="397.0871"
   height="396.04947"
   viewBox="0 0 397.0871 396.04947"
   sodipodi:docname="new-alg-icon-3.svg"
   inkscape:version="0.92.4 (unknown)">
  <path
     style="stroke-width:1.33333325"
     d="m 9.4931632,393.44147 c -2.34349,-1.42891 -5.34349,-4.25015 -6.66667,-6.2694 -2.28479004,-3.48675 -2.42348004,-12.85029 -2.75776004,-186.18526 -0.22829,-118.37668 0.11566,-184.25052 0.97874004,-187.45578 0.73189,-2.71804 3.17948,-6.71331 5.43909,-8.87839 L 10.594943,0.71615 112.14239,0.35807 213.68983,0 l 44.36544,44.35061 44.36544,44.35062 v 67.00745 c 0,46.1041 0.43874,67.00746 1.40642,67.00746 0.77353,0 5.63636,-1.8 10.80628,-4 5.16993,-2.2 10.1191,-4 10.99817,-4 2.78915,0 69.29076,29.32299 70.37609,31.03139 1.69616,2.6699 1.28388,79.50721 -0.47356,88.25817 -2.75017,13.69406 -6.72378,17.85982 -39.1134,41.00468 -16.13333,11.5285 -30.07361,20.9785 -30.97838,20.99999 -0.90479,0.0215 -6.27819,-3.28522 -11.94091,-7.34828 l -10.29585,-7.38737 -2.0591,4.33983 c -1.1325,2.38692 -4.09782,5.71122 -6.5896,7.38737 l -4.53052,3.04755 -138.13614,-0.005 C 17.321903,396.03947 13.643993,395.97237 9.4931632,393.44146 Z M 291.87206,384.2351 c 4.96201,-6.12834 3.60161,-8.51579 -10.65048,-18.69119 -15.65185,-11.17479 -22.15597,-18.33739 -24.83091,-27.34487 -2.65785,-8.94997 -2.92572,-91.75966 -0.30329,-93.76278 0.91667,-0.70019 9.91667,-4.82121 20,-9.15783 l 18.33333,-7.88476 V 161.77768 96.16167 l -40.11706,-0.38943 -40.11708,-0.38943 -3.21626,-3.74101 -3.21626,-3.74103 V 47.97513 8.04948 h -95.82019 c -94.919767,0 -95.853197,0.026 -99.333327,2.76344 L 9.0873832,13.57636 V 197.9396 c 0,173.92079 0.13216,184.47836 2.3333298,186.3959 1.28334,1.11797 3.23334,2.36797 4.33334,2.77777 1.1,0.40981 63.1031,0.6381 137.784677,0.50732 L 289.32339,387.3828 Z M 34.911133,354.07096 c -0.42664,-1.11182 -0.42664,-2.93116 0,-4.04298 0.67164,-1.75027 5.65497,-1.97388 37.14265,-1.66667 l 36.366927,0.35483 v 3.33333 3.33333 l -36.366927,0.35483 c -31.48768,0.30721 -36.47101,0.0836 -37.14265,-1.66667 z m 93.330647,-0.007 c -0.42517,-1.10798 -0.42517,-2.92102 0,-4.02899 0.67569,-1.76084 7.87121,-1.97071 57.14265,-1.66667 l 56.36962,0.3475 v 3.33333 3.33333 l -56.36962,0.34783 c -49.27144,0.30404 -56.46696,0.0941 -57.14265,-1.66667 z M 35.322513,328.50681 c -1.70798,-1.70797 -0.89785,-6.84023 1.20726,-7.64803 1.15997,-0.44546 28.94529,-0.80965 61.74516,-0.80965 63.079577,0 65.074797,0.18997 63.939377,6.08813 -0.48121,2.4997 -2.41485,2.58912 -63.243197,2.92478 -34.51074,0.19042 -63.15261,-0.0596 -63.6486,-0.55556 z m 146.681107,0.0144 c -1.79693,-1.79695 -0.8738,-5.73403 1.66277,-7.09156 1.48551,-0.79501 12.11883,-1.38024 25.0785,-1.38024 23.81229,0 27.79964,0.90568 26.8035,6.08813 -0.46696,2.42935 -2.00381,2.5994 -26.56208,2.93923 -14.33654,0.19837 -26.47876,-0.0516 -26.98269,-0.55556 z m -110.396927,-28.322 -3.18598,-2.57884 -0.66666,-55.51994 -0.66667,-55.51961 -10.83972,8.08747 c -15.07631,11.24806 -15.16028,11.17546 -15.16028,-13.10759 v -19.53678 l 54.19329,-40.6539 C 125.08698,99.0104 150.24647,80.52996 151.19065,80.30239 c 1.60226,-0.38619 108.06641,78.47525 110.20965,81.63585 0.53877,0.7945 0.98877,9.99457 1,20.44457 0.0208,19.41062 -0.0768,19.77004 -5.17479,19.0547 -1.02401,-0.14369 -6.12401,-3.48657 -11.33333,-7.42862 l -9.47147,-7.16736 -0.66666,55.22424 c -0.61214,50.70635 -0.8614,55.41893 -3.04696,57.60397 -2.22159,2.22105 -7.56572,2.40402 -80.14736,2.74405 -75.187697,0.35223 -77.872737,0.27879 -80.953037,-2.21452 z m 42.814017,-49.37436 c 0,-23.40669 0.37271,-43.52888 0.82824,-44.71598 1.99315,-5.19404 7.20828,-6.05974 36.5051,-6.05974 29.29681,0 34.51194,0.8657 36.50509,6.05974 0.45553,1.1871 0.82824,21.30929 0.82824,44.71598 v 42.55761 h 19.33333 19.33334 v -56.50124 -56.5016 l -36.75712,-27.57496 c -20.21642,-15.16622 -37.56707,-27.88577 -38.55702,-28.26565 -1.00502,-0.38565 -18.3357,11.72732 -39.24288,27.42812 l -37.442977,28.11881 v 56.64843 56.64843 h 19.33333 19.333327 z m 66.66667,23.89129 v -18.66667 h -4.55761 c -6.13484,0 -8.77572,-1.1664 -8.77572,-3.87598 0,-3.60058 2.8126,-5.45735 8.26666,-5.45735 h 5.06667 v -18.66667 -18.66666 h -29.33333 -29.33334 v 42 41.99999 h 29.33334 29.33333 z M 152.48954,113.8914 c 1.31233,0.50358 88.37917,65.20872 100.26451,74.51317 1.30532,1.02188 1.66666,-1.18487 1.66666,-10.17829 v -11.48307 l -50.64862,-38.01353 c -27.85675,-20.90744 -51.26487,-38.01353 -52.01804,-38.01353 -0.75318,0 -24.1613,17.10609 -52.018037,38.01353 l -50.64863,38.01353 v 11.31668 11.31667 l 50.81067,-38.08427 C 128.00901,130.2222 151.5043,113.51332 152.48954,113.8914 Z M 35.970733,94.87828 c -0.98083,-0.62171 -1.58083,-2.56252 -1.33334,-4.31292 l 0.44999,-3.18255 h 25.85468 c 23.50853,0 25.98887,0.21883 27.33333,2.41143 1.18394,1.93077 0.96278,2.79449 -1.10952,4.33333 -2.02597,1.50444 -7.67362,1.91747 -26,1.9015 -12.8765,-0.0107 -24.21432,-0.5291 -25.19514,-1.15079 z m 0.70564,-26.42953 c -1.7143,-0.44419 -2.29226,-1.65174 -2,-4.17866 l 0.41101,-3.55394 h 46.6484 c 45.056887,0 46.665357,0.088 47.144997,2.57853 1.10267,5.72573 -1.84157,6.09704 -47.048237,5.93347 -23.50984,-0.0851 -43.83012,-0.4358 -45.15617,-0.7794 z m -1.76847,-29.05286 c -0.42487,-1.1072 -0.42487,-2.91896 0,-4.02616 0.67644,-1.76276 8.61075,-1.97 63.80932,-1.66666 l 63.036827,0.34641 v 3.33333 3.33334 l -63.036827,0.34641 c -55.19857,0.30333 -63.13288,0.0961 -63.80932,-1.66667 z M 358.89795,362.71614 c 19.52127,-13.90742 21.86374,-16.00654 25.18943,-22.57242 l 3.66667,-7.23909 -0.0357,-41.42757 -0.0357,-41.42759 -30.29755,-13.00608 c -16.66383,-7.15334 -31.19772,-12.96816 -32.29772,-12.92181 -1.1,0.0464 -15.5,5.94675 -32,13.112 l -30,13.02775 v 41.89406 c 0,54.36619 -3.21773,47.81125 37.82383,77.05204 l 24.49048,17.44868 5.98674,-4.30332 c 3.29271,-2.36683 15.67199,-11.20332 27.50952,-19.63665 z m -49.22444,-23.03599 c -6.4542,-3.55624 -28.58613,-21.24673 -28.58613,-22.84948 0,-0.9834 0.91729,-2.54931 2.03843,-3.47976 2.12258,-1.76159 5.57238,0.21948 22.05897,12.66744 l 6.09739,4.60376 25.90261,-32.28292 c 14.24643,-17.7556 26.91212,-32.47064 28.14597,-32.70009 1.23386,-0.22944 2.87211,0.75764 3.64056,2.19351 1.20864,2.25834 -2.33317,7.29616 -26.24336,37.32813 -15.20232,19.09458 -28.27681,34.99349 -29.05444,35.33089 -0.77762,0.3374 -2.57762,-0.0277 -4,-0.81148 z M 287.75405,86.37355 c 0,-0.18842 -16.2,-16.53426 -36,-36.32407 l -36,-35.98148 v 36.32408 36.32407 h 36 c 19.8,0 36,-0.15418 36,-0.3426 z"
     id="path74"
     inkscape:connector-curvature="0" />
</svg>
