<?xml version="1.0" encoding="UTF-8" standalone="no"?>
<!-- Created with Inkscape (http://www.inkscape.org/) -->

<svg
   xmlns:dc="http://purl.org/dc/elements/1.1/"
   xmlns:cc="http://creativecommons.org/ns#"
   xmlns:rdf="http://www.w3.org/1999/02/22-rdf-syntax-ns#"
   xmlns:svg="http://www.w3.org/2000/svg"
   xmlns="http://www.w3.org/2000/svg"
   xmlns:sodipodi="http://sodipodi.sourceforge.net/DTD/sodipodi-0.dtd"
   xmlns:inkscape="http://www.inkscape.org/namespaces/inkscape"
   version="1.1"
   id="svg90"
   width="394.49466"
   height="396.74921"
   viewBox="0 0 394.49466 396.7492"
   sodipodi:docname="new-alg-icon-1.svg"
   inkscape:version="0.92.4 (unknown)">
  <path
     style="stroke-width:1.33333325"
     d="m 98.820992,395.33995 c -20.2836,-6.63593 -31.96452,-25.74583 -28.19964,-46.13439 1.6495,-8.9328 3.80732,-13.25422 10.09156,-20.21012 10.31156,-11.41366 27.226478,-15.84625 42.335118,-11.094 8.60938,2.70798 20.56407,12.5738 23.33136,19.25462 l 1.66622,4.02261 h 25.0347 25.0347 l 1.39781,-8.33333 c 0.76879,-4.58334 3.00917,-18.64528 4.97864,-31.24878 4.79933,-30.71326 3.85113,-32.97678 -7.43604,-17.75122 -3.80549,5.13333 -7.77111,9.33333 -8.81248,9.33333 -2.29568,0 -2.7852,-0.79637 -21.18752,-34.46908 -8.06667,-14.76044 -15.26005,-26.84326 -15.98531,-26.8507 -0.72525,-0.008 -13.20728,4.2946 -27.73782,9.56012 l -26.419188,9.57366 7.051308,3.42634 c 20.53189,9.97676 38.36301,39.19208 36.83774,60.35666 -0.33941,4.70964 -0.89068,5.73633 -3.08006,5.73633 -2.30415,0 -2.8013,-1.219 -3.65702,-8.96693 -0.54469,-4.9318 -2.09714,-12.1318 -3.4499,-16 -1.95032,-5.5769 -2.98755,-6.9385 -5.00966,-6.57636 -1.40254,0.25119 -3.11445,0.55119 -3.80424,0.66667 -2.32366,0.38901 -2.3955,-4.92785 -0.0893,-6.61413 2.10688,-1.54059 2.0028,-2.03019 -1.37221,-6.45506 -2.00862,-2.63342 -5.99436,-6.64321 -8.85723,-8.91064 -4.98289,-3.94652 -5.3146,-4.0236 -7.76647,-1.8047 -4.275358,3.86916 -9.236998,-0.22908 -5.184088,-4.28199 1.909488,-1.90949 -1.35699,-3.69837 -11.64753,-6.37872 -10.43084,-2.71689 -12.22979,-2.57727 -12.73622,0.98853 -0.27381,1.92795 -1.49812,3.15226 -3.42606,3.42607 -2.47686,0.35177 -3,-0.20297 -3,-3.18123 0,-3.53412 -0.12854,-3.59002 -6.33334,-2.75545 -3.48333,0.46852 -9.12952,1.84924 -12.54708,3.06828 -5.98796,2.13591 -6.18752,2.378 -5.4922,6.66272 0.62416,3.84632 0.3471,4.44628 -2.05334,4.44628 -1.52618,0 -3.3167,-0.9682 -3.97894,-2.15155 -0.99168,-1.77204 -1.72397,-1.8733 -4.15148,-0.57414 -2.25756,1.20821 -3.38902,1.2109 -4.83417,0.012 -2.96119,-2.45756 -0.33657,-5.68244 8.42569,-10.35268 10.99686,-5.86126 21.46663,-8.26027 36.24499,-8.30506 l 12.71987,-0.0385 43.333328,-15.66913 43.33333,-15.66915 0.4077,-7.0938 c 0.40052,-6.96906 0.28,-7.22766 -6.8531,-14.70597 -13.24065,-13.88144 -20.04082,-32.13276 -21.97201,-58.97181 -1.0172,-14.13672 -1.48836,-16.0994 -5.28527,-22.01637 -7.85649,-12.2437 -8.29736,-14.349643 -8.29736,-39.635523 0,-19.08102 0.45362,-24.71482 2.52608,-31.37367 4.98004,-16.00089 15.34659,-28.06072 30.02539,-34.9297698 12.96988,-6.06933 19.63641,-6.69732 66.45293,-6.2599 40.1919,0.37553 43.29083,0.57562 47.5229,3.06839 6.15518,3.62553 9.5253,8.5003098 10.4036,15.0484998 0.6025,4.49202 1.65089,6.08999 5.79448,8.83209 2.78237,1.84129 6.59564,5.36261 8.47392,7.82517 6.47889,8.49425 7.46737,13.89943 7.46737,40.83283 v 24.869973 l -4.45167,9.29572 c -6.07088,12.67685 -8.43508,20.41328 -10.7861,35.29572 -3.48776,22.07814 -9.20223,34.96502 -21.07931,47.53662 -6.40888,6.78364 -6.48535,6.96776 -6.08667,14.65505 l 0.40375,7.7851 36,13.01394 c 69.78844,25.2284 65.54363,23.47026 72.13667,29.87796 3.32705,3.23352 7.17597,8.42646 8.55318,11.53987 1.37722,3.11341 4.59144,18.0792 7.14274,33.2573 5.13966,30.57686 4.979,34.39436 -1.73003,41.10338 -2.00532,2.00532 -5.99876,4.29926 -8.87429,5.09764 -3.57603,0.99285 -40.62272,1.45736 -117.22827,1.46984 l -112,0.0183 -0.17428,7.77068 c -0.45833,20.43527 -17.17841,37.10645 -38.49191,38.37937 -4.51378,0.26958 -10.42697,-0.31602 -13.568238,-1.34372 z m 21.659098,-6.78965 c 21.9957,-6.56226 30.87185,-35.60591 16.2886,-53.29794 -15.5958,-18.9204 -44.655788,-15.92582 -55.989618,5.7696 -9.71758,18.60158 -0.19132,41.33218 19.999548,47.72091 6.81693,2.157 11.99575,2.10637 19.70147,-0.19257 z m -20.737668,-8.66696 c -0.74452,-1.39115 -1.35367,-3.39883 -1.35367,-4.46151 0,-1.06268 -1.2,-2.24595 -2.66666,-2.62949 -1.46667,-0.38355 -2.66667,-1.4097 -2.66667,-2.28034 0,-0.87064 1.2,-1.89678 2.66667,-2.28033 2.99901,-0.78425 3.69736,-5.71967 0.80932,-5.71967 -3.14026,0 -3.82536,-4.15829 -0.81483,-4.94556 2.3436,-0.61286 2.67217,-1.8139 2.67217,-9.76756 0,-13.41036 -0.11265,-13.28688 12.121618,-13.28688 9.72064,0 10.82733,0.2898 14.85734,3.89063 3.71135,3.31608 4.35438,4.78835 4.35438,9.96969 0,4.83968 -0.74039,6.81947 -3.63155,9.71062 -3.03988,3.03989 -5.04924,3.72181 -12.33333,4.18564 -7.43738,0.47357 -8.70179,0.91898 -8.70179,3.06542 0,2.12471 1.02633,2.51134 6.66667,2.51134 5.77777,0 6.66666,0.35556 6.66666,2.66666 0,2.31111 -0.88889,2.66667 -6.66666,2.66667 -6.46374,0 -6.66667,0.11747 -6.66667,3.85735 0,4.64898 -3.37949,6.4601 -5.312998,2.84732 z m 21.898838,-25.30426 c 2.73221,-2.26753 2.66111,-9.21589 -0.12587,-12.29542 -1.61345,-1.78286 -4.12244,-2.43832 -9.33333,-2.43832 h -7.12664 v 8.83177 8.83177 l 7.25251,-0.60144 c 3.98888,-0.33078 8.18888,-1.37854 9.33333,-2.32836 z m 105.88072,-45.6413 -5.05296,-32.24089 2.76073,-4.46696 c 3.16528,-5.12152 2.67884,-8.51079 -2.04109,-14.22123 -3.65235,-4.41883 -4.3688,-4.18612 -9.38145,3.04715 l -3.69182,5.32728 3.01311,4.2315 c 1.73899,2.44219 2.94585,5.99327 2.85408,8.39778 -0.13027,3.41364 -6.3884,44.69434 -8.86845,58.49959 l -0.65871,3.66667 h 13.05976 13.05977 z m 155.59404,28.96816 c 4.20483,-4.20482 4.16491,-6.14812 -0.74765,-36.40307 -4.38443,-27.00236 -6.48896,-32.61446 -14.70622,-39.21689 -3.10761,-2.49692 -17.43005,-8.38195 -41.81401,-17.18119 -20.39807,-7.36089 -37.61989,-13.20554 -38.27072,-12.98812 -0.65084,0.21744 -8.57964,13.89534 -17.61956,30.39534 -9.45541,17.25836 -17.34572,30.1756 -18.57763,30.41344 -1.34668,0.26 -4.52586,-2.80638 -8.56644,-8.26244 -7.0105,-9.46644 -9.4183,-11.2553 -10.68977,-7.94192 -0.70636,1.84073 6.57672,55.27965 8.46677,62.12425 0.6031,2.18402 5.07887,2.33333 69.94842,2.33333 h 69.30409 z m -181.43305,-74.0606 c 6.24472,-8.43333 11.35818,-15.69764 11.36325,-16.14291 0.005,-0.44526 -8.24752,-6.28592 -18.33905,-12.97924 l -18.34827,-12.16966 -7.14409,2.28458 c -3.92926,1.25654 -7.42288,3.01111 -7.76363,3.89908 -0.76783,2.00092 26.17617,51.36576 27.74345,50.82955 0.62386,-0.21344 6.2436,-7.28807 12.48834,-15.7214 z m 63.97054,-10.51713 c 7.00438,-12.7511 12.73524,-23.65799 12.73524,-24.23754 0,-0.57956 -3.39072,-2.32237 -7.53493,-3.87292 l -7.53493,-2.81917 -18.52054,12.28392 c -12.11997,8.03871 -18.28204,12.9054 -17.83045,14.08221 0.37953,0.98907 5.58765,8.43223 11.5736,16.54036 9.00511,12.1977 11.18499,14.437 12.63015,12.97451 0.96064,-0.97216 7.47748,-12.20028 14.48186,-24.95137 z m -26.59052,-25.02528 c 17.32824,-11.5449 19.32576,-13.26758 19.32576,-16.66667 0,-4.54248 -3.65417,-5.18968 -7.19718,-1.27471 -3.16771,3.5003 -16.50106,9.27206 -25.08511,10.85891 -11.68048,2.15925 -22.33828,-0.76133 -37.35788,-10.23731 -6.48632,-4.09225 -7.69316,-3.95917 -7.69316,0.84835 0,3.64599 1.62088,5.06835 18.99287,16.66667 10.44606,6.97428 19.14948,12.6805 19.3409,12.6805 0.19143,0 9.04464,-5.79408 19.6738,-12.87574 z m -2.00757,-18.87071 c 6.6898,-3.28573 21.62965,-14.70225 30.42605,-23.25053 6.92454,-6.7292 13.84867,-20.73323 16.77775,-33.93289 3.08213,-13.88936 3.06885,-65.354293 -0.0185,-71.860493 -3.62651,-7.64228 -9.82263,-11.77918 -26.6646,-17.80282 -22.01656,-7.87437 -22.98531,-7.92901 -39.49703,-2.22766 -13.12805,4.533 -14.95275,4.82085 -30.55912,4.82085 -15.67177,0 -16.89965,0.19597 -22.01689,3.51407 -2.98072,1.93273 -7.00083,5.95284 -8.93356,8.93356 l -3.5141,5.41949 0.0197,32.066443 c 0.0145,23.53853 0.54254,34.2839 1.98564,40.40453 2.1253,9.01405 9.41966,24.21564 14.29728,29.79581 4.35668,4.98419 22.12836,17.96627 31.95503,23.34291 7.92016,4.33349 9.02911,4.57546 19.07568,4.16232 7.62115,-0.3134 12.37977,-1.28004 16.66667,-3.38559 z m 62.69967,-107.67367 c 0.71518,-1.881073 1.28716,-14.031073 1.27105,-27.000003 -0.0248,-19.98886 -0.40204,-24.4005 -2.47693,-28.96836 -2.74051,-6.0332 -8.89152,-11.76698 -15.65475,-14.59283 -4.34149,-1.814 -4.50571,-2.14888 -4.50571,-9.18873 0,-7.78175 -1.81109,-10.89643 -7.10916,-12.2261598 -1.60748,-0.40345 -24.21552,-0.55435 -50.24009,-0.33533 l -47.31741,0.39821 -7.70342,3.9010098 c -9.52298,4.82244 -18.68921,14.42593 -23.36053,24.47489 -3.2692,7.03272 -3.58317,9.25826 -4.04793,28.69214 -0.57054,23.8574 0.30946,32.93196 3.19357,32.93196 1.40363,0 1.91831,-1.72494 1.91831,-6.42915 0,-13.64773 8.60108,-27.73 20.43598,-33.45919 4.85954,-2.35245 8.28059,-2.78277 22.31831,-2.80726 15.46595,-0.0271 17.4668,-0.34031 29.80187,-4.66667 7.27254,-2.55076 15.47517,-4.63773 18.22805,-4.63773 6.84181,0 41.3678,12.11578 47.19783,16.56257 2.5995,1.98273 6.51136,6.71728 8.69298,10.5212 3.49772,6.09865 3.9681,8.19028 3.97914,17.694 0.007,5.92779 0.4125,11.177793 0.9014,11.666673 1.70368,1.70368 3.18592,0.86573 4.47744,-2.53124 z M 60.931392,386.42351 C 28.770312,381.69403 4.0369021,355.81704 0.3384721,323.02898 c -1.35108,-11.97783 1.37126,-25.5182 7.65442,-38.07157 5.3329199,-10.65484 7.3519699,-12.72044 11.0476099,-11.3023 1.56871,0.60198 1.7006,1.51004 0.62877,4.32914 -1.06482,2.80072 -0.89028,4.08232 0.8122,5.96354 2.95599,3.26634 1.15023,5.67947 -3.547,4.74003 -3.67748,-0.73549 -3.88313,-0.48239 -6.50496,8.00612 -3.6550899,11.83382 -3.5791399,16.17545 0.29258,16.72533 4.23177,0.601 4.09104,5.60511 -0.1746,6.20835 -2.9936199,0.42336 -3.1312599,0.84145 -2.4140999,7.33333 0.41828,3.78641 1.77578,9.4036 3.0166599,12.48264 2.03212,5.0424 2.61982,5.52552 5.91905,4.86568 4.54124,-0.90825 6.33064,1.54229 3.45027,4.72507 -1.17184,1.29486 -2.13062,2.96573 -2.13062,3.71302 0,1.69411 15.32951,16.43131 17.0917,16.43131 0.70932,0 1.63502,-0.9 2.05714,-2 0.42211,-1.1 2.0648,-2 3.65044,-2 2.54706,0 2.79523,0.54067 2.12995,4.64031 l -0.75301,4.6403 8.719,2.69303 c 4.79545,1.48116 11.58234,2.69303 15.08197,2.69303 7.77633,0 11.52332,3.11776 7.38431,6.14428 -1.39582,1.02065 -3.17316,1.78256 -3.94967,1.69313 -0.77651,-0.0895 -4.76764,-0.65608 -8.86919,-1.25924 z m -17.2093,-42.57817 c -4.8071,-4.8071 -3.45291,-8.79991 6.49216,-19.14211 5.03736,-5.23851 9.83736,-10.83512 10.66666,-12.43691 0.91708,-1.7713 1.50784,-10.44041 1.50784,-22.12667 0,-16.92122 0.291,-19.4777 2.43832,-21.42099 3.13682,-2.83877 10.04252,-2.84017 12.39843,-0.003 2.81556,3.39132 4.24993,50.69417 1.66157,54.79587 -1.04121,1.65 -2.81729,3 -3.94681,3 -1.12953,0 -6.77771,4.5 -12.55151,10 -11.0917,10.56573 -14.20944,11.79056 -18.66666,7.33333 z m 13.96973,-11.96928 c 3.59489,-3.64976 6.10851,-7.06359 5.58583,-7.58628 -0.97738,-0.97736 -14.22223,11.28953 -14.22223,13.1721 0,2.29999 2.39473,0.75114 8.6364,-5.58582 z m 16.43409,-15.20043 c -0.25133,-1.76148 -1.53897,-2.99148 -3.40978,-3.25715 -3.96056,-0.5624 -5.63623,3.50558 -2.41442,5.86142 3.15294,2.30549 6.32252,0.88822 5.8242,-2.60427 z m -2.40382,-27.49696 c 0,-9.77777 -0.51852,-16 -1.33334,-16 -0.81481,0 -1.33333,6.22223 -1.33333,16 0,9.77778 0.51852,16 1.33333,16 0.81482,0 1.33334,-6.22222 1.33334,-16 z"
     id="path131"
     inkscape:connector-curvature="0" />
</svg>
