<?xml version="1.0" encoding="UTF-8" standalone="no"?>
<!-- Created with Inkscape (http://www.inkscape.org/) -->

<svg
   xmlns:dc="http://purl.org/dc/elements/1.1/"
   xmlns:cc="http://creativecommons.org/ns#"
   xmlns:rdf="http://www.w3.org/1999/02/22-rdf-syntax-ns#"
   xmlns:svg="http://www.w3.org/2000/svg"
   xmlns="http://www.w3.org/2000/svg"
   xmlns:sodipodi="http://sodipodi.sourceforge.net/DTD/sodipodi-0.dtd"
   xmlns:inkscape="http://www.inkscape.org/namespaces/inkscape"
   version="1.1"
   id="svg64"
   width="395.94492"
   height="396.00565"
   viewBox="0 0 395.94492 396.00564"
   sodipodi:docname="ожидать результатов 2.svg"
   inkscape:version="0.92.4 (unknown)">
  <metadata
     id="metadata70">
    <rdf:RDF>
      <cc:Work
         rdf:about="">
        <dc:format>image/svg+xml</dc:format>
        <dc:type
           rdf:resource="http://purl.org/dc/dcmitype/StillImage" />
        <dc:title></dc:title>
      </cc:Work>
    </rdf:RDF>
  </metadata>
  <defs
     id="defs68" />
  <sodipodi:namedview
     pagecolor="#ffffff"
     bordercolor="#666666"
     borderopacity="1"
     objecttolerance="10"
     gridtolerance="10"
     guidetolerance="10"
     inkscape:pageopacity="0"
     inkscape:pageshadow="2"
     inkscape:window-width="1920"
     inkscape:window-height="978"
     id="namedview66"
     showgrid="false"
     inkscape:zoom="0.50315657"
     inkscape:cx="337.44661"
     inkscape:cy="214.53581"
     inkscape:window-x="0"
     inkscape:window-y="27"
     inkscape:window-maximized="1"
     inkscape:current-layer="svg64" />
  <path
     id="path74"
     style="fill:#000080;stroke-width:1.33333337"
     d="M 113.95704,0 C 19.65579,0 13.70005,0.1379967 9.41602,2.4355469 6.91746,3.7755366 3.7775,6.9154906 2.4375,9.4140625 0.11163,13.750902 0,22.304078 0,198 c 0,175.69603 0.11163,184.24714 2.4375,188.58399 1.34,2.49856 4.47996,5.63852 6.97852,6.97851 4.31556,2.31443 11.41454,2.43655 141.89648,2.43555 154.14969,-0.002 144.09155,0.6499 149.13672,-9.67578 l 2.44727,-5.01172 10.42187,7.34375 c 5.73176,4.03928 11.12109,7.3457 11.97657,7.3457 3.22825,0 60.73109,-42.49842 63.84765,-47.1875 6.47287,-9.73888 6.73653,-12.02835 6.79883,-58.98242 0.0448,-33.79908 -0.33209,-44.48165 -1.60742,-45.49414 -2.27251,-1.80415 -67.13372,-29.66992 -69.06055,-29.66992 -0.8463,0 -6.27859,2.05373 -12.07226,4.56445 l -10.53321,4.56445 V 156.25391 88.710937 L 258.31055,44.355469 213.95508,0 Z m -2.04493,8 h 94.75586 v 37.800781 c 0,24.7657 0.52192,39.297628 1.51367,42.142578 C 210.81182,95.488259 213.88258,96 256.63672,96 h 38.05469 l -0.3457,65.64844 -0.34571,65.65039 -19.66601,8.62305 -19.66602,8.625 0.0293,45.39258 c 0.0272,42.21406 0.21218,45.79642 2.64453,51.15624 4.45482,9.81645 7.61023,13.11653 22.80664,23.84766 14.08035,9.94301 14.67704,10.56004 13.91797,14.3711 -0.43623,2.19017 -1.70087,4.89017 -2.81055,6 -1.77104,1.77125 -18.67297,2.05609 -138.30273,2.32226 C 15.75661,387.94197 13.3477,387.87104 10.35352,383.44727 9.07286,381.55519 9.07286,14.451153 10.35352,12.533203 13.27196,8.1624128 16.90481,8 111.91211,8 Z M 216,14.017578 252,50 c 19.79999,19.78982 36,36.135789 36,36.324219 0,0.18842 -16.20001,0.341793 -36,0.341797 H 216 V 50.341797 Z M 98.000004,33.332031 c -64.909909,0 -66.077549,0.107561 -63.880859,5.832031 0.752469,1.96091 6.900036,2.167969 64.066406,2.167969 55.213299,0 63.330039,-0.254445 64.005859,-2.015625 0.4257,-1.10934 0.0341,-2.90934 -0.87109,-4 -1.41323,-1.70283 -10.36075,-1.984375 -63.320316,-1.984375 z m -2.636718,26.892578 c -4.335159,0.01554 -9.215843,0.04699 -14.708985,0.08984 -41.791,0.32601 -45.137946,0.525722 -46.509765,2.763672 -1.183371,1.93053 -0.960702,2.793401 1.111328,4.332031 2.13017,1.58181 10.312551,1.921875 46.238281,1.921875 37.903985,0 43.924715,-0.27432 45.744145,-2.09375 1.15239,-1.15238 2.0957,-2.580715 2.0957,-3.171875 0,-3.264126 -3.62459,-3.95059 -33.970704,-3.841797 z M 152.4961,80.871094 c -3.53044,0.358654 -13.20127,7.335305 -56.335939,39.673826 -30.028771,22.51293 -54.949147,41.84881 -55.378907,42.96875 -0.42977,1.11995 -0.78125,9.7141 -0.78125,19.09766 0,23.8971 0.306201,24.05557 19,9.76172 l 7.667969,-5.86328 v 54.18164 54.17969 l 3.896485,3.89648 3.896484,3.89844 h 76.873048 76.87109 l 3.89844,-3.89844 L 236,294.8711 v -54.09766 -54.0957 l 10.78321,7.99414 c 5.93017,4.39695 11.25592,7.99414 11.83593,7.99414 3.33852,0 4.10878,-4.54829 3.75391,-22.1836 L 262,162 209.33399,122.26172 c -28.96667,-21.85581 -53.99629,-40.392941 -55.6211,-41.193361 -0.33341,-0.164251 -0.71244,-0.248502 -1.21679,-0.197265 z m -80.533205,6.02539 c -3.230196,-0.01468 -6.993866,0.0094 -11.324219,0.07227 -22.469778,0.32636 -25.167281,0.60946 -26.49414,2.77539 -1.182381,1.930071 -0.960212,2.795725 1.111328,4.333985 3.958089,2.93918 49.020172,2.788432 51.982422,-0.173828 2.57525,-2.57524 2.629659,-3.801405 0.255859,-5.771485 -0.955215,-0.792765 -5.840661,-1.192278 -15.53125,-1.236328 z m 80.593745,4.208985 c 1.05421,0.40453 24.46043,17.646661 52.01368,38.314451 l 50.09765,37.57618 v 11.16796 c 0,6.14232 -0.19989,11.16797 -0.44336,11.16797 -0.24347,0 -22.89411,-16.85857 -50.33398,-37.46484 -27.43988,-20.60626 -50.64844,-37.77394 -51.57617,-38.15039 -0.92774,-0.37644 -24.17395,16.18279 -51.65821,36.79883 C 73.172015,171.13167 50.38112,188 50.00977,188 c -0.37134,0 -0.651794,-4.95 -0.621094,-11 l 0.05664,-11 50.597654,-37.81445 c 30.72982,-22.96624 51.34957,-37.526791 52.51367,-37.080081 z M 151.33399,124 c 0.59402,0 17.76288,12.44935 38.15234,27.66602 l 37.07227,27.66601 0.0547,57 0.0547,57 H 208 189.33399 v -42.59179 -42.5918 l -3.21875,-3.74219 -3.2168,-3.74023 h -31.41211 c -30.90528,0 -31.46115,0.0487 -34.44922,3.03515 -3.01873,3.01706 -3.03842,3.29698 -3.42187,46.33399 l -0.38672,43.29687 H 94.615239 76.000004 l 0.05469,-57 0.05469,-57 37.072266,-27.66601 C 133.57123,136.44935 150.73996,124 151.33399,124 Z m -28.66602,85.33203 H 151.33399 180 V 228 246.66602 h -4.57031 c -5.8476,0 -9.30255,3.16538 -7.3789,6.75976 1.00547,1.87875 2.80564,2.57422 6.66406,2.57422 H 180 v 18.66602 18.66601 h -28.66601 -28.66602 v -42 z m 202.66602,14.73633 c 1.10001,-0.001 15.5,5.8694 32,13.04688 l 30,13.05078 0.35351,39.17187 c 0.38181,42.2642 -0.3894,48.7336 -6.70117,56.18555 -1.64202,1.93865 -13.63179,11.07293 -26.64258,20.29687 -13.01077,9.22393 -25.01012,17.61283 -26.66601,18.64258 -2.84689,1.77039 -4.49743,0.80536 -30.33789,-17.75 -24.81922,-17.82204 -27.66683,-20.27167 -31.01953,-26.68945 l -3.69141,-7.06641 0.35352,-41.47851 0.35156,-41.47852 30,-12.96484 c 16.5,-7.13045 30.9,-12.9658 32,-12.9668 z m -38.72461,90.67969 c -0.11277,0.0195 -0.16541,0.0394 -0.043,0.0449 0.0169,7.8e-4 0.0339,-6.7e-4 0.0508,0 -0.003,-0.0151 -0.005,-0.0298 -0.008,-0.0449 z m -78.89453,5.04687 c -12.13077,0.0398 -24.13728,0.81697 -25.61719,2.29688 -1.58991,1.58991 -1.75752,2.71787 -0.69922,4.69531 1.31768,2.46211 2.76778,2.58259 26.85352,2.24024 22.89912,-0.32549 25.6088,-0.6046 26.9375,-2.77344 1.18244,-1.93011 0.96025,-2.79374 -1.11133,-4.33203 -1.97765,-1.46856 -14.23251,-2.16679 -26.36328,-2.12696 z M 98.324223,320 c -38.694482,0 -60.744239,0.4863 -62.412109,1.37891 -2.94415,1.57567 -3.313504,4.01853 -0.964844,6.36719 1.22562,1.22557 16.481342,1.52878 63.521484,1.26562 58.078936,-0.32491 61.999796,-0.49556 63.386716,-2.75781 1.18361,-1.93064 0.96278,-2.79331 -1.10937,-4.33203 C 158.58247,320.31522 148.3425,320 98.324223,320 Z m -26.990234,28 c -32.36885,0 -36.474325,0.23818 -37.214844,2.16797 -0.45778,1.19295 -0.148279,2.99296 0.6875,4 1.21781,1.46738 8.472804,1.83203 36.527344,1.83203 36.648601,0 39.291501,-0.41526 37.212891,-5.83203 C 107.80635,348.23819 103.70284,348 71.333989,348 Z m 113.517581,0 c -51.00959,0 -56.64787,0.21203 -57.39844,2.16797 -0.45778,1.19295 -0.14828,2.99296 0.6875,4 2.3595,2.84305 110.8149,2.69706 113.17969,-0.15234 0.90507,-1.09065 1.29679,-2.89065 0.87109,-4 C 241.51736,348.25908 234.11401,348 184.85157,348 Z"
     inkscape:connector-curvature="0" />
  <path
     style="fill:#000080;stroke-width:1.40534151"
     d="m 309.33669,333.58317 c -7.32985,-4.42273 -23.8908,-18.01749 -23.8908,-19.61177 0,-3.82083 4.96587,-2.38611 13.68079,3.95258 15.51943,11.28789 14.90943,11.16209 20.56545,4.24111 2.68831,-3.28955 14.45078,-17.80782 26.13883,-32.26282 14.5391,-17.98099 21.89685,-26.03398 23.29587,-25.49712 1.12469,0.43158 2.04488,1.64595 2.04488,2.69861 0,3.10417 -53.54148,69.46737 -56.03394,69.45253 -0.48531,-0.003 -3.0958,-1.34079 -5.80108,-2.97312 z"
     id="path113"
     inkscape:connector-curvature="0" />
</svg>
