<?xml version="1.0" encoding="UTF-8" standalone="no"?>
<!-- Generator: Adobe Illustrator 19.0.0, SVG Export Plug-In . SVG Version: 6.00 Build 0)  -->

<svg
   xmlns:dc="http://purl.org/dc/elements/1.1/"
   xmlns:cc="http://creativecommons.org/ns#"
   xmlns:rdf="http://www.w3.org/1999/02/22-rdf-syntax-ns#"
   xmlns:svg="http://www.w3.org/2000/svg"
   xmlns="http://www.w3.org/2000/svg"
   xmlns:sodipodi="http://sodipodi.sourceforge.net/DTD/sodipodi-0.dtd"
   xmlns:inkscape="http://www.inkscape.org/namespaces/inkscape"
   version="1.1"
   id="Layer_1"
   x="0px"
   y="0px"
   viewBox="0 0 492.00412 409.31201"
   xml:space="preserve"
   sodipodi:docname="arrow-short.svg"
   width="492.00412"
   height="409.31201"
   inkscape:version="0.92.4 (unknown)">
<g
   id="g76"
   transform="translate(0,-41.346)">
	<g
   id="g74">
		<path
   d="M 484.14,226.886 306.46,49.202 c -5.072,-5.072 -11.832,-7.856 -19.04,-7.856 -7.216,0 -13.972,2.788 -19.044,7.856 l -16.132,16.136 c -5.068,5.064 -7.86,11.828 -7.86,19.04 0,7.208 2.792,14.2 7.86,19.264 L 355.9,207.526 H 26.58 C 11.732,207.526 0,219.15 0,234.002 v 22.812 c 0,14.852 11.732,27.648 26.58,27.648 H 357.076 L 252.248,388.926 c -5.068,5.072 -7.86,11.652 -7.86,18.864 0,7.204 2.792,13.88 7.86,18.948 l 16.132,16.084 c 5.072,5.072 11.828,7.836 19.044,7.836 7.208,0 13.968,-2.8 19.04,-7.872 l 177.68,-177.68 c 5.084,-5.088 7.88,-11.88 7.86,-19.1 0.016,-7.244 -2.776,-14.04 -7.864,-19.12 z"
   id="path72"
   inkscape:connector-curvature="0" />
	</g>
</g>
<g
   id="g78"
   transform="translate(0,-41.346)">
</g>
<g
   id="g80"
   transform="translate(0,-41.346)">
</g>
<g
   id="g82"
   transform="translate(0,-41.346)">
</g>
<g
   id="g84"
   transform="translate(0,-41.346)">
</g>
<g
   id="g86"
   transform="translate(0,-41.346)">
</g>
<g
   id="g88"
   transform="translate(0,-41.346)">
</g>
<g
   id="g90"
   transform="translate(0,-41.346)">
</g>
<g
   id="g92"
   transform="translate(0,-41.346)">
</g>
<g
   id="g94"
   transform="translate(0,-41.346)">
</g>
<g
   id="g96"
   transform="translate(0,-41.346)">
</g>
<g
   id="g98"
   transform="translate(0,-41.346)">
</g>
<g
   id="g100"
   transform="translate(0,-41.346)">
</g>
<g
   id="g102"
   transform="translate(0,-41.346)">
</g>
<g
   id="g104"
   transform="translate(0,-41.346)">
</g>
<g
   id="g106"
   transform="translate(0,-41.346)">
</g>
</svg>