<?xml version="1.0" encoding="UTF-8" standalone="no"?>
<!-- Created with Inkscape (http://www.inkscape.org/) -->

<svg
   xmlns:dc="http://purl.org/dc/elements/1.1/"
   xmlns:cc="http://creativecommons.org/ns#"
   xmlns:rdf="http://www.w3.org/1999/02/22-rdf-syntax-ns#"
   xmlns:svg="http://www.w3.org/2000/svg"
   xmlns="http://www.w3.org/2000/svg"
   xmlns:sodipodi="http://sodipodi.sourceforge.net/DTD/sodipodi-0.dtd"
   xmlns:inkscape="http://www.inkscape.org/namespaces/inkscape"
   version="1.1"
   id="svg183"
   width="263.84952"
   height="244"
   viewBox="0 0 263.84952 244"
   sodipodi:docname="service-icon-2.svg"
   inkscape:version="0.92.4 (unknown)">
  <path
     d="m 16.960643,243 c -0.24445,-0.55 -2.18544,-1.9 -4.31332,-3 -2.12788,-1.1 -5.7278804,-4.30547 -8.0000004,-7.12325 l -4.13113002,-5.12327 -0.3574,-104.07271 c -0.35438,-103.192109 -0.33384,-104.121402 2.42793002,-109.826465 1.66728,-3.444128 4.75443,-6.9553669 7.6907404,-8.7472339 2.69797,-1.6464167 5.1054,-3.469042 5.34985,-4.0502781 C 15.871753,0.4755568 53.833673,0 99.987133,0 h 83.915377 l 5.16355,3.2596023 c 10.94397,6.9086287 13.45013,14.0133777 13.45013,38.1300427 0,15.480063 0.32742,18.450699 2.10905,19.13437 1.15997,0.445125 10.30997,0.822496 20.33333,0.838601 24.08424,0.03869 28.48271,1.877371 35.99524,15.046931 2.8196,4.942789 2.89571,6.297885 2.89571,51.555553 0,25.56365 -0.50683,46.67934 -1.12628,46.92379 -0.61945,0.24444 -1.96945,2.18994 -3,4.3233 -1.03055,2.13337 -4.17729,5.73337 -6.99277,8 l -5.11906,4.12114 -20.86296,0.43179 c -11.92253,0.24675 -21.58488,1.03092 -22.54761,1.82992 -1.12913,0.93711 -1.69133,5.41125 -1.70489,13.56821 -0.0313,18.83499 -2.74402,25.39396 -13.50645,32.6571 L 182.79612,244 H 100.1006 c -45.482527,0 -82.895517,-0.45 -83.139957,-1 z m 27.75348,-14.66661 4.19792,-5.00006 h 51.621217 51.62122 l 4.32216,5 c 4.2477,4.91386 4.4874,5 13.91374,5 10.63589,0 15.81113,-1.95288 19.30462,-7.28464 1.8306,-2.79382 2.17242,-6.16709 1.86467,-18.40148 l -0.37681,-14.98054 -22,-0.66667 c -24.32676,-0.73717 -26.84662,-1.56577 -33.61364,-11.05303 -3.01066,-4.22089 -3.06228,-4.93733 -3.7197,-51.61364 L 131.18286,82 85.849533,81.333333 c -32.91141,-0.48399 -46.13664,-1.126181 -48.26496,-2.343649 -6.16436,-3.526217 -7.06838,-6.572045 -7.06838,-23.814903 V 38.942912 l 4.71307,-4.138123 4.71306,-4.138122 h 60.129547 c 58.41745,0 60.25631,0.07833 64.58091,2.751085 5.0966,3.149869 7.17774,8.777209 7.1893,19.439596 0.008,7.943632 0.7248,8.475985 11.40291,8.475985 5.53839,0 7.42215,-0.53283 8.24924,-2.333333 0.58952,-1.283333 0.76063,-10.934723 0.38024,-21.447533 l -0.69161,-19.114199 -4.35438,-3.885801 -4.35436,-3.8858 h -81.68229 c -89.647417,0 -85.269537,-0.39153 -89.616577,8.014725 -1.7168104,3.319944 -1.9858504,17.647333 -1.9451404,103.585728 0.0372,78.55184 0.41027,100.38707 1.7565704,102.8132 3.30764,5.96064 8.69458,8.23471 19.52951,8.24429 9.92451,0.009 10.0317,-0.0289 14.19793,-4.99122 z m -11.53126,-39.00006 c -2.33881,-2.33881 -2.66667,-4.44444 -2.66667,-17.12668 0,-18.66902 0.59059,-19.34286 17.53583,-20.00838 20.0798,-0.78863 23.22825,2.52741 22.2775,23.46334 C 69.621403,191.25475 68.708213,192 50.309543,192 c -12.68224,0 -14.78786,-0.32785 -17.12668,-2.66667 z m 27.15962,-9.66666 c 1.11336,-4.15451 1.00398,-13.35754 -0.18004,-15.14788 -1.07999,-1.63304 -13.93685,-3.20848 -17.84451,-2.1866 -2.09324,0.54738 -2.4684,2.00661 -2.4684,9.60109 0,4.92559 0.4,9.35561 0.88889,9.84449 0.48888,0.4889 4.91891,0.8889 9.84449,0.8889 8.16019,0 9.02701,-0.26646 9.75957,-3 z m 22.1591,8 c -2.09764,-3.44038 -2.64311,-6.72215 -2.64707,-15.92566 -0.004,-10.33588 0.34379,-11.99777 3.2129,-15.33333 3.1461,-3.65755 3.53042,-3.74101 17.225917,-3.74101 12.9902,0 14.25803,0.23486 17.44877,3.23241 3.26054,3.06312 3.44076,3.94136 3.44076,16.76759 0,12.42418 -0.2533,13.77312 -3.08594,16.43425 C 115.30773,191.72123 113.57499,192 100.07732,192 H 85.143663 Z m 27.747067,-14.88064 c 0.25203,-5.81811 -0.15599,-9.55707 -1.10707,-10.14487 -1.82942,-1.13065 -15.103547,-0.6604 -17.155457,0.60775 -1.60639,0.99281 -2.06122,17.04869 -0.52643,18.58348 0.51893,0.51892 4.86893,0.76892 9.666667,0.55556 L 109.84952,182 Z m -75.399117,-32.70362 -4.33334,-2.70988 v -15.25616 c 0,-14.89337 0.0835,-15.32187 3.51315,-18.0196 3.00522,-2.36391 5.38124,-2.76344 16.43425,-2.76344 12.16612,0 13.10997,0.20105 16.15352,3.44076 2.99289,3.18578 3.23242,4.46746 3.23242,17.29629 0,12.6375 -0.2668,14.12253 -3.03489,16.89258 -2.64602,2.64789 -4.61072,3.0878 -15.33333,3.43319 -10.48787,0.33781 -12.9364,-0.003 -16.63178,-2.31374 z M 59.582863,130.4 c 1.80509,-1.80509 2.14318,-14.14597 0.46023,-16.79913 -0.77163,-1.21646 -3.84325,-1.61359 -10.31292,-1.33333 l -9.21398,0.39913 -0.40536,7.8507 c -0.22295,4.31789 -0.0918,8.66789 0.29149,9.66667 0.89722,2.33811 16.87845,2.51805 19.18054,0.21596 z m 27.33648,10.97996 c -5.40122,-2.29008 -7.3692,-8.5055 -6.86252,-21.67381 0.42948,-11.16189 0.70282,-12.14817 4.20039,-15.15582 3.39474,-2.91923 4.93069,-3.217 16.593707,-3.217 12.13148,0 13.06253,0.20105 16.59231,3.58279 3.59697,3.44611 3.73963,4.07907 3.73963,16.59232 0,11.82783 -0.29215,13.34933 -3.21633,16.75055 -3.05148,3.54928 -3.85441,3.75696 -15.66666,4.05217 -6.847687,0.17115 -13.768927,-0.24791 -15.380527,-0.9312 z M 109.84952,122 v -9.33333 h -9.33333 -9.333327 l -0.40536,7.8507 c -0.59347,11.49365 -0.4356,11.66968 10.053707,11.21063 l 9.01831,-0.39467 z m 135.08032,58.86285 c 1.69419,-0.94013 4.24023,-3.46886 5.65789,-5.61942 2.41928,-3.67 2.5781,-6.67451 2.58634,-48.92968 l 0.009,-45.019577 -4.56421,-4.98042 -4.56421,-4.98042 h -46.74348 -46.74348 l -4.35897,4.357372 -4.35898,4.357372 -0.38537,44.907523 c -0.42087,49.04431 -0.19453,50.84295 6.94579,55.19711 3.80557,2.32064 7.37692,2.50089 48.77291,2.46173 33.77111,-0.032 45.41806,-0.45923 47.74699,-1.75159 z m -36.207,-13.96784 c -3.16217,-3.49416 -2.76449,-5.52585 2.05491,-10.4982 L 215.03929,152 l -4.26154,-4.39681 c -4.52939,-4.67314 -5.25699,-7.40776 -2.66156,-10.00319 2.62601,-2.62601 5.74549,-1.83985 9.52322,2.4 1.9602,2.2 4.04714,4 4.6376,4 0.59048,0 2.79811,-1.8 4.90584,-4 4.07464,-4.253 7.12756,-5.00577 9.73334,-2.4 2.60577,2.60577 1.853,5.65869 -2.4,9.73333 -2.2,2.10774 -4,4.26914 -4,4.80311 0,0.53396 1.8,2.66976 4,4.74621 4.7542,4.48719 5.06546,7.55319 1.05222,10.36418 -2.76776,1.93861 -3.1991,1.82109 -7.06348,-1.9244 -5.16237,-5.00358 -7.18633,-5.00174 -11.98874,0.0107 -4.49382,4.69054 -4.88994,4.76991 -7.79335,1.56168 z m -56.33982,-11.42793 c -0.40942,-1.06689 -0.54694,-3.33344 -0.3056,-5.03677 0.43606,-3.07784 0.55818,-3.09698 19.7721,-3.09698 h 19.33334 V 152 v 4.66667 l -19.02774,0.3701 c -15.6632,0.30467 -19.15936,0.0271 -19.7721,-1.56969 z m 14.80465,-35.80041 c -0.318,-0.91667 -0.74916,-4.06667 -0.95816,-7 l -0.37999,-5.33334 -6.66666,-0.66666 c -6.3859,-0.63859 -6.68427,-0.84918 -7.08448,-5 -0.41471,-4.301099 -0.37376,-4.333339 5.50341,-4.333339 7.111,0 8.59835,-1.5204 9.15607,-9.35949 0.36072,-5.070346 0.88982,-6.039734 3.49838,-6.409526 4.7148,-0.668371 6.92662,2.069349 6.92662,8.573542 0,5.040704 0.42926,5.919074 3.2371,6.623794 1.7804,0.44686 4.3304,0.47199 5.66667,0.0558 3.74052,-1.16488 6.02635,1.0346 5.53633,5.327189 -0.40777,3.57202 -0.92998,3.90431 -7.10677,4.52199 -6.26515,0.62651 -6.68869,0.90758 -7.03228,4.66666 -0.80617,8.82019 -1.47887,10 -5.70164,10 -2.20904,0 -4.27661,-0.75 -4.5946,-1.66666 z m 50.87316,-1.26396 c -0.96216,-3.67929 1.39998,-6.65489 4.86918,-6.13372 3.8764,0.58234 5.85791,4.32707 3.67894,6.95258 -2.62602,3.16415 -7.63194,2.68461 -8.54812,-0.81886 z m -14.12479,-13.51619 c -1.8058,-1.8058 -1.83687,-5.804749 -0.0536,-6.906839 0.75141,-0.4644 9.27284,-0.89144 18.93651,-0.94897 14.96398,-0.0891 17.77649,0.22227 18.9603,2.09901 0.97352,1.543349 0.94915,2.902739 -0.0813,4.536949 -1.27023,2.01436 -3.85479,2.35427 -18.90665,2.48652 -10.75968,0.0945 -17.97894,-0.39045 -18.85516,-1.26667 z m 14.70428,-16.070281 c -2.15136,-2.592232 0.30579,-7.482906 3.75952,-7.482906 3.65823,0 6.28589,3.706207 4.56952,6.445098 -1.84912,2.950733 -6.28295,3.503194 -8.32904,1.037808 z M 140.92771,68.111223 c 4.67091,-3.690532 14.00333,-7.25192 15.38437,-5.870892 0.35331,0.353314 1.89378,-0.02733 3.42324,-0.845882 2.37628,-1.271744 2.78087,-2.735533 2.78087,-10.061116 0,-7.11111 -0.43975,-8.808185 -2.57901,-9.953088 C 158.2748,40.490569 137.1053,40 100.3755,40 c -51.151867,0 -57.232167,0.225797 -59.420977,2.206651 -3.27532,2.96412 -3.5367,22.298512 -0.36272,26.830008 L 42.667403,72 h 46.66925 46.669247 z"
     id="path261"
     inkscape:connector-curvature="0" />
</svg>
