<?xml version="1.0" encoding="UTF-8" standalone="no"?>
<!-- Created with Inkscape (http://www.inkscape.org/) -->

<svg
   xmlns:dc="http://purl.org/dc/elements/1.1/"
   xmlns:cc="http://creativecommons.org/ns#"
   xmlns:rdf="http://www.w3.org/1999/02/22-rdf-syntax-ns#"
   xmlns:svg="http://www.w3.org/2000/svg"
   xmlns="http://www.w3.org/2000/svg"
   xmlns:sodipodi="http://sodipodi.sourceforge.net/DTD/sodipodi-0.dtd"
   xmlns:inkscape="http://www.inkscape.org/namespaces/inkscape"
   version="1.1"
   id="svg77"
   width="266.66666"
   height="266.66666"
   viewBox="0 0 266.66666 266.66666"
   sodipodi:docname="service-icon-1.svg"
   inkscape:version="0.92.4 (unknown)">
  <path
     d="m 140.91361,261.95475 c -1.83835,-3.85506 -2.24695,-8.89822 -2.24695,-27.73333 0,-16.12777 -0.4791,-23.50053 -1.6,-24.62143 -1.195,-1.195 -16.16319,-1.6 -59.13437,-1.6 -39.40158,0 -58.96278,-0.4774 -62.06666,-1.51474 C 10.70497,204.76049 4,199.04764 4,196.37536 4,195.38954 3.1,194.23761 2,193.8155 0.25027,193.14406 0,182.07425 0,105.35394 0,29.030241 0.25932,17.444636 2,16 3.1,15.087081 4,13.56695 4,12.621932 4,10.313455 11.4137,4.1979554 15.43609,3.1884001 17.21291,2.7424482 18.66666,1.8426234 18.66666,1.1887893 18.66666,0.53495517 24.00247,0 30.52401,0 40.10637,0 42.53664,0.40464839 43.19068,2.1090499 43.6358,3.2690274 44,10.69556 44,18.612457 c 0,10.430285 0.4938,14.804181 1.79312,15.882515 1.27691,1.059742 30.92902,1.58655 103,1.829927 l 101.20687,0.341767 0.66667,25.333332 0.66667,25.333333 4,0.666667 c 2.2,0.366666 5.65,1.785672 7.66666,3.153346 l 3.66667,2.48668 v 83.846656 c 0,82.06887 -0.0565,83.90319 -2.66667,86.51331 -2.58642,2.58643 -4.44444,2.66667 -61.75305,2.66667 h -59.08638 z m 115.644,-2.76408 c 1.8909,-0.72561 2.10905,-9.12337 2.10905,-81.19067 0,-72.06731 -0.21815,-80.465076 -2.10905,-81.190684 -1.15998,-0.445125 -25.33998,-0.809318 -53.73334,-0.809318 -38.37443,0 -52.03493,0.410654 -53.22427,1.6 -2.31064,2.310634 -2.31064,158.489352 0,160.799992 1.18934,1.18935 14.84984,1.6 53.22427,1.6 28.39336,0 52.57336,-0.36418 53.73334,-0.80932 z m -99.97272,-10.2563 c -0.38765,-1.01022 -0.52784,-6.58372 -0.31152,-12.38556 l 0.39329,-10.54882 h 12 12 v 12 12 l -11.68846,0.38556 c -8.96839,0.29584 -11.8525,-0.0419 -12.39331,-1.45118 z m 16.08177,-10.12239 c 0,-4.48099 -3.94432,-6.77243 -6.77869,-3.93807 -3.32061,3.32063 -1.29193,8.05954 3.22648,7.53694 2.7424,-0.31719 3.55221,-1.13764 3.55221,-3.59887 z m 18.56486,10.07016 c -0.37663,-0.98149 -0.5078,-6.53149 -0.29148,-12.33333 l 0.39329,-10.54882 h 12 12 l 0.38337,12.33334 0.38336,12.33333 h -12.09188 c -8.86942,0 -12.27437,-0.47557 -12.77666,-1.78452 z m 15.5279,-8.32724 c 2.36859,-2.85399 -0.0139,-6.55491 -4.21981,-6.55491 -3.26455,0 -4.78113,3.04346 -3.36089,6.74455 0.98166,2.5582 5.39175,2.44787 7.5807,-0.18964 z m 18.50724,8.82847 c -0.0367,-0.76086 -0.0667,-5.88338 -0.0667,-11.38338 0,-5.5 0.03,-10.62252 0.0667,-11.38337 0.0424,-0.88016 4.55291,-1.24391 12.4,-1 l 12.33333,0.38337 v 12 12 l -12.33333,0.38338 c -7.84709,0.2439 -12.35759,-0.11987 -12.4,-1 z m 16.75364,-9.44736 c 1.11009,-3.49758 -1.65173,-6.84651 -5.22335,-6.3337 -2.85761,0.4103 -4.24581,3.76948 -2.95157,7.14223 1.14741,2.99012 7.15795,2.39565 8.17492,-0.80853 z m -84.86781,-24.04878 c -0.69451,-0.42868 -1.08795,-6.12868 -0.87429,-12.66666 l 0.38846,-11.88724 h 12 12 l 0.38338,12.33333 c 0.34368,11.05667 0.13665,12.34772 -2,12.47239 -9.15644,0.53418 -20.84186,0.39981 -21.89755,-0.25182 z m 15.76821,-10.06846 c 1.103,-2.87438 -1.26564,-6.48544 -4.25404,-6.48544 -1.30681,0 -2.98692,0.96844 -3.73354,2.1521 -2.03698,3.22926 -0.15414,6.51456 3.73354,6.51456 1.93355,0 3.78042,-0.94696 4.25404,-2.18122 z m 18.89846,10.06846 c -0.69451,-0.42868 -1.08795,-6.12868 -0.8743,-12.66666 l 0.38847,-11.88724 h 12 12 l 0.38337,12.33333 c 0.34368,11.05667 0.13665,12.34772 -2,12.47239 -9.15644,0.53418 -20.84185,0.39981 -21.89754,-0.25182 z m 15.53447,-10.61789 c 1.1101,-3.49757 -1.65173,-6.8465 -5.22334,-6.33369 -2.85761,0.41029 -4.24581,3.76948 -2.95157,7.14222 1.14741,2.99012 7.15794,2.39566 8.17491,-0.80853 z m 18.64667,10.73065 c -0.405,-0.6562 -1.07401,-20.36827 -0.80493,-23.7167 0.10413,-1.29648 3.15692,-1.62285 12.47129,-1.33333 l 12.33333,0.38337 0.38338,12.33333 c 0.28972,9.32068 -0.036,12.36305 -1.33334,12.45503 -7.07198,0.50132 -22.7162,0.41873 -23.04973,-0.12174 z m 16.25373,-10.18122 c 1.21234,-3.1593 -1.37648,-6.48544 -5.04776,-6.48544 -3.26454,0 -4.78113,3.04345 -3.36089,6.74454 1.01359,2.64138 7.37081,2.44547 8.40865,-0.2591 z M 156.5673,180.88854 c -0.37528,-0.97796 -0.50644,-6.82796 -0.29148,-13 l 0.39084,-11.22188 9.30544,-0.40121 c 15.58032,-0.67177 15.36123,-0.85648 15.36123,12.95063 0,13.82029 0.38896,13.45058 -14.15089,13.45058 -7.0483,0 -10.13095,-0.51637 -10.61514,-1.77812 z m 16.56628,-10.80041 c 0.67206,-3.5386 -3.40554,-6.3932 -6.6511,-4.65623 -2.47707,1.32568 -3.33234,5.27379 -1.53238,7.07375 1.89682,1.89683 7.68907,0.18571 8.18348,-2.41752 z m 18.12044,10.85264 c -0.3863,-1.00669 -0.52649,-6.88019 -0.31153,-13.05223 l 0.39084,-11.22188 h 12 12 V 169.33333 182 l -11.68847,0.38556 c -8.94949,0.29521 -11.85306,-0.0433 -12.39084,-1.44479 z m 15.93665,-9.71649 c 0.44514,-1.15998 0.80932,-2.63887 0.80932,-3.28642 0,-1.8747 -4.93758,-4.00604 -7.23674,-3.12377 -2.08745,0.80104 -2.90045,5.9376 -1.20769,7.63035 1.69738,1.6974 6.83033,0.8771 7.63511,-1.22016 z M 225.07921,171 c -0.24752,-6.41667 0.0819,-12.41667 0.73196,-13.33334 1.23378,-1.73966 18.72876,-2.39908 22.74644,-0.85734 1.70174,0.65301 2.10905,3.07173 2.10905,12.52401 0,13.73527 0.44245,13.33333 -14.67775,13.33333 h -10.45965 z m 17.33502,-1.24312 c 0.47066,-3.306 -3.65009,-6.22224 -6.98432,-4.94279 -2.12432,0.81519 -2.88949,5.94856 -1.14648,7.69156 2.077,2.07701 7.71515,0.17093 8.1308,-2.74877 z M 156.5932,146.28933 c -0.36836,-0.95991 -0.50252,-10.41771 -0.29814,-21.01731 L 156.66666,106 h 46.66667 46.66666 v 20.66666 20.66667 l -46.36853,0.35065 c -37.22897,0.28154 -46.50054,0.007 -47.03826,-1.39465 z m 82.65333,-7.58967 c 3.3013,-1.25514 3.42013,-1.69436 3.42013,-12.64126 0,-10.65485 -0.18149,-11.38528 -3,-12.07406 -1.65,-0.40322 -19.2,-0.56465 -39,-0.35873 l -36,0.37439 v 12 12 l 35.33333,0.70006 c 19.43334,0.38504 35.44428,0.83504 35.57987,1 0.1356,0.16496 1.7856,-0.28521 3.66667,-1.0004 z m -100.88291,34.06396 c 0.20012,-13.88954 -0.1806,-25.7806 -0.84678,-26.44678 -0.72499,-0.72499 -3.27706,0.0888 -6.36362,2.0292 -18.14995,11.4101 -42.50599,9.81484 -59.79094,-3.91616 -4.89952,-3.89214 -13.99674,-16.44041 -14.07136,-19.40937 -0.0233,-0.92795 -0.92332,-2.85186 -2,-4.27535 -1.40096,-1.85225 -1.95759,-6.17558 -1.95759,-15.20468 0,-13.289722 2.10625,-20.035249 9.79246,-31.361513 14.08312,-20.75263 46.152,-27.135911 67.54087,-13.443951 7.40515,4.740357 13.81707,11.324669 19.08522,19.598315 l 4.88166,7.666667 h 42.41656 c 31.21288,0 42.83917,-0.422615 44.01656,-1.6 1.09489,-1.094892 1.6,-7.604389 1.6,-20.619754 0,-17.439667 -0.21425,-19.134421 -2.57901,-20.4 C 236.04346,43.21586 49.19589,43.491966 46.25845,45.666666 44.20986,47.183319 43.9769,52.973813 43.67028,110 l -0.33695,62.66666 -12.86009,0.66667 c -10.37271,0.53772 -13.43253,1.18245 -15.81969,3.33333 -4.38287,3.94908 -5.64686,8.30356 -3.92487,13.52126 2.90127,8.79093 0.8523,8.54236 67.25375,8.15878 L 138,198 Z m 26.29567,-95.442221 c -0.45728,-0.739894 -0.45225,-2.539894 0.0107,-3.999999 0.81205,-2.556991 2.06376,-2.654735 33.9967,-2.654735 31.93295,0 33.18465,0.09775 33.99621,2.654735 0.46342,1.460105 0.46844,3.260105 0.0107,3.999999 -1.13235,1.832188 -66.8824,1.832188 -68.01474,0 z m 9.16623,-17.961975 c -0.42763,-1.114351 -0.42763,-2.937833 0,-4.052184 0.66857,-1.742289 4.84408,-1.975745 29.8093,-1.666667 l 29.03184,0.359426 v 3.333333 3.333333 l -29.03184,0.359425 c -24.96522,0.309079 -29.14073,0.07563 -29.8093,-1.666666 z M 24.66666,165.48161 34,164.66666 V 87.999998 11.333333 l -7.63193,-0.398835 c -4.19757,-0.21936 -8.89836,0.278935 -10.44622,1.107322 -6.41616,3.433826 -6.58852,5.588424 -6.58852,82.359798 0,39.501322 0.41866,72.239262 0.93035,72.750952 0.5117,0.51169 1.8617,0.52843 3,0.0372 1.13831,-0.49128 6.26965,-1.25993 11.40298,-1.70816 z M 98.39999,146.4 c 2.12642,-2.12642 2.30136,-81.165319 0.18433,-83.282344 -0.99868,-0.998679 -2.97283,-0.879192 -6.70211,0.405649 -32.22698,11.103097 -40.8024,50.048945 -16.12435,73.229785 3.02118,2.83788 17.99531,11.10536 20.3088,11.21284 0.40333,0.0187 1.45333,-0.68593 2.33333,-1.56593 z m 24.53189,-2.99058 c 2.4208,-1.16253 6.756,-4.10613 9.63378,-6.54134 4.84179,-4.09719 5.27643,-5.03757 5.8234,-12.59928 0.3251,-4.49439 0.2039,-9.71429 -0.26933,-11.59978 l -0.86041,-3.42816 -13.62966,0.37957 L 110,110 l -0.37214,18.51408 -0.37213,18.51409 4.63734,-0.75253 c 2.55054,-0.41391 6.61801,-1.7037 9.03881,-2.86622 z M 140.64994,94.69316 C 142.49246,91.774399 144,88.722486 144,87.91113 c 0,-2.92018 -8.73466,-13.55526 -14.63889,-17.823928 -6.17172,-4.462056 -13.17272,-7.420537 -17.56008,-7.420537 -2.27799,0 -2.4677,1.366681 -2.4677,17.777777 0,9.777778 0.4,18.177778 0.88889,18.666666 0.48889,0.48889 6.78136,0.888889 13.98327,0.888889 h 13.09439 z"
     id="path87"
     inkscape:connector-curvature="0" />
</svg>
