<?xml version="1.0" encoding="UTF-8" standalone="no"?>
<!-- Created with Inkscape (http://www.inkscape.org/) -->

<svg
   xmlns:dc="http://purl.org/dc/elements/1.1/"
   xmlns:cc="http://creativecommons.org/ns#"
   xmlns:rdf="http://www.w3.org/1999/02/22-rdf-syntax-ns#"
   xmlns:svg="http://www.w3.org/2000/svg"
   xmlns="http://www.w3.org/2000/svg"
   xmlns:sodipodi="http://sodipodi.sourceforge.net/DTD/sodipodi-0.dtd"
   xmlns:inkscape="http://www.inkscape.org/namespaces/inkscape"
   version="1.1"
   id="svg203"
   width="266.66666"
   height="266.64966"
   viewBox="0 0 266.66666 266.64966"
   sodipodi:docname="service-icon-4.svg"
   inkscape:version="0.92.4 (unknown)">
  <path
     d="m 126.65461,263.96046 c -1.25714,-2.34898 -0.1536,-4.0388 8.72291,-13.3572 5.58917,-5.8674 9.9657,-11.24581 9.72564,-11.95202 -0.26895,-0.79116 -23.97849,-1.42172 -61.76983,-1.6428 L 22,236.64965 16.66667,233.34416 C 9.93429,229.17157 5.37196,224.35112 3.70548,219.64965 2.99066,217.63298 1.8645,215.98298 1.2029,215.98298 0.49981,215.98298 0,178.61195 0,126.04166 V 36.100341 l 4.11128,-7.058676 c 2.2612,-3.882271 5.4112,-8.142737 7,-9.467702 4.34803,-3.626003 13.94087,-7.590972 18.3656,-7.590972 5.6379,0 6.8013,4.277657 6.34964,23.346788 -0.20861,8.807402 0.0805,16.757401 0.64245,17.666667 0.78825,1.275406 14.48688,1.649812 59.94305,1.63834 l 58.92131,-0.01487 27.33333,-27.281892 C 215.10115,-5.0354327 213.86791,-4.4845992 226.7775,7.6358193 242.2237,22.13778 242.35037,25.541846 227.99999,40.48953 c -5.86666,6.110856 -10.66666,11.79678 -10.66666,12.635386 0,1.04541 4.31733,1.52474 13.73333,1.52474 8.90371,0 14.29601,0.562675 15.33333,1.6 1.17038,1.170371 1.6,11.911111 1.6,39.999999 0,27.166305 0.43144,38.399995 1.47478,38.399995 0.81112,0 2.65765,-1.50379 4.1034,-3.34176 3.47025,-4.41171 7.25453,-6.33016 10.47218,-5.30892 2.55447,0.81076 2.61631,2.43776 2.61631,68.83578 0,57.16022 -0.30376,68.30914 -1.90476,69.91014 -1.60055,1.60053 -12.66676,1.90476 -69.28642,1.90476 -66.20519,0 -67.40679,-0.0469 -68.82087,-2.68919 z m 129.98097,-7.4702 c 1.55755,-1.55754 2.0486,-4.06593 1.76189,-9 -0.37857,-6.5152 -0.58776,-6.86041 -4.39748,-7.2569 -7.42525,-0.77276 -9.35032,-8.25038 -2.12401,-8.25038 4.30828,0 6.79068,-2.19336 6.79068,-6 0,-3.6074 -2.43383,-6 -6.10341,-6 -1.59687,0 -3.65034,-0.9 -4.56326,-2 -2.34928,-2.8307 0.5407,-6 5.47119,-6 2.95253,0 3.99968,-0.75042 4.6472,-3.33034 1.24243,-4.9502 -0.0511,-6.90184 -5.21653,-7.8709 -7.6822,-1.44118 -7.65906,-6.38773 0.0377,-8.05725 7.40849,-1.60698 7.70992,-11.40817 0.35084,-11.40817 -2.33321,0 -4.33853,-0.92411 -5.06332,-2.33333 -1.73517,-3.37375 -0.47185,-5.66667 3.12212,-5.66667 5.93588,0 7.31927,-3.11456 7.29705,-16.42857 -0.0107,-6.73095 -0.58721,-13.13466 -1.27997,-14.23044 -0.99852,-1.57944 -8.2548,4.98322 -35.01351,31.66666 -18.56469,18.51246 -34.72451,33.65901 -35.91073,33.65901 -1.18622,0 -2.52745,-0.96601 -2.98052,-2.14669 -0.80488,-2.09747 20.42925,-25.48744 46.43848,-51.15326 l 10.09997,-9.96663 v -38.92433 c 0,-21.40837 -0.36418,-39.873386 -0.80932,-41.033365 -0.67653,-1.763036 -3.46692,-2.109049 -17.0082,-2.109049 h -16.19888 l -40.53325,40.549604 c -37.72195,37.73717 -41.03183,40.70643 -47.7216,42.81062 -13.43331,4.22529 -8.51028,5.2614 28.38122,5.97311 l 34.5567,0.66666 v 3.33334 3.33333 l -54,0.37079 c -29.69999,0.20393 -55.34999,0.0425 -56.99999,-0.35874 -3.47831,-0.84584 -4.08679,-5.3097 -0.89095,-6.53606 1.15997,-0.44514 4.30997,-0.81851 7,-0.82974 2.69002,-0.0107 5.58486,-0.46198 6.43299,-1.00166 1.43386,-0.91242 6.91864,-14.89446 10.05968,-25.64459 2.5129,-8.60036 6.06626,-13.94427 14.91666,-22.43328 8.83807,-8.477171 12.97617,-10.001649 13.91507,-5.126314 0.28982,1.504931 -2.33286,5.342084 -6.98469,10.219034 -4.09682,4.2951 -7.44877,8.18972 -7.44877,8.65472 0,1.94252 13.89995,15.35251 15.91344,15.35251 2.54131,0 77.85671,-74.955283 78.54867,-78.173104 0.46478,-2.161395 -12.55143,-16.493563 -14.97916,-16.493563 -0.70115,0 -13.36847,12 -28.14961,26.666666 -14.78115,14.666667 -27.50451,26.666666 -28.27415,26.666666 -0.76963,0 -2.11444,-0.861646 -2.98845,-1.91477 -2.19127,-2.640321 -0.64032,-5.066007 9.83384,-15.380045 4.81914,-4.745481 8.76209,-9.095481 8.76209,-9.666667 0,-0.571184 -24.6,-1.038517 -54.66666,-1.038517 H 36 v 36.754321 c 0,36.657393 -0.5851,41.912343 -4.66667,41.912343 -4.2839,0 -4.66666,-5.13276 -4.66666,-62.57901 0,-45.050559 -0.35906,-57.419913 -1.66667,-57.416002 -3.68094,0.01107 -10.39777,5.545858 -13.27955,10.94271 L 8.66667,37.98299 8.28912,110.53878 c -0.20765,39.90567 0.0937,73.02705 0.66971,73.60303 0.57599,0.576 4.79589,-0.81073 9.37755,-3.08161 l 8.33029,-4.12888 v -11.03179 c 0,-13.12904 0.64721,-15.24988 4.65381,-15.24988 3.8558,0 4.63783,2.83754 4.66131,16.9132 0.0243,14.58424 -0.93666,16.74255 -8.33579,18.72152 -10.73879,2.87219 -18.31267,11.56106 -18.31267,21.00856 0,7.19323 3.17184,13.36449 8.85313,17.22503 l 5.09923,3.46502 h 67.46055 67.46054 l 7.74466,-8.06284 c 7.7484,-8.06673 11.57689,-9.53 12.49268,-4.77474 0.32926,1.70976 -5.07942,8.07041 -17.65136,20.75817 -17.38686,17.54701 -19.22128,19.87311 -17.2372,21.85719 0.48888,0.48889 25.64602,0.88889 55.90476,0.88889 48.93003,0 55.25474,-0.23887 57.17526,-2.15939 z m -67.24914,-19.77662 c -0.88372,-1.06482 -1.25635,-3.04006 -0.82807,-4.38943 1.15587,-3.64183 42.60264,-44.34122 45.15546,-44.34122 3.98879,0 4.95283,4.85617 4.95283,24.94899 0,27.34636 1.64103,25.71767 -25.91235,25.71767 -17.39698,0 -22.08335,-0.38827 -23.36787,-1.93601 z m 37.83783,-6.87331 c 2.83487,-1.08784 3.16511,-24.52401 0.34556,-24.52401 -2.5742,0 -23.94402,22.31586 -22.93432,23.94961 0.91076,1.47364 19.04378,1.93475 22.58876,0.5744 z M 110.75432,139.93608 c 3.68658,-1.973 3.21387,-4.14799 -1.99977,-9.20125 -5.13459,-4.97663 -8.19348,-4.78491 -9.54456,0.59821 -0.64663,2.57641 -0.0847,4.29961 2.19269,6.72376 3.34935,3.56523 5.42284,3.98191 9.35164,1.87928 z M 212.22834,44.443006 c 1.34108,-1.213657 2.43832,-2.882439 2.43832,-3.708404 0,-0.825965 -3.57983,-5.044224 -7.95516,-9.373909 -7.82365,-7.742012 -8,-7.831588 -10.66666,-5.418279 -1.49134,1.349632 -2.71151,3.093486 -2.71151,3.87523 0,1.349654 14.58209,16.832012 15.85328,16.832012 0.33188,0 1.70065,-0.992991 3.04173,-2.20665 z M 229.51299,26.29703 c 1.01512,-1.883217 -0.112,-3.81197 -5.64917,-9.666666 -3.80452,-4.022722 -7.91803,-7.3140403 -9.14112,-7.3140403 -1.22308,0 -3.95833,1.8104723 -6.07833,4.0232723 l -3.85455,4.023272 8.54371,8.620326 8.5437,8.620327 3.18382,-2.976932 c 1.75109,-1.637312 3.75446,-4.035615 4.45194,-5.329559 z"
     id="path219"
     inkscape:connector-curvature="0" />
</svg>
