<?xml version="1.0" encoding="UTF-8" standalone="no"?>
<!-- Created with Inkscape (http://www.inkscape.org/) -->

<svg
   xmlns:dc="http://purl.org/dc/elements/1.1/"
   xmlns:cc="http://creativecommons.org/ns#"
   xmlns:rdf="http://www.w3.org/1999/02/22-rdf-syntax-ns#"
   xmlns:svg="http://www.w3.org/2000/svg"
   xmlns="http://www.w3.org/2000/svg"
   xmlns:sodipodi="http://sodipodi.sourceforge.net/DTD/sodipodi-0.dtd"
   xmlns:inkscape="http://www.inkscape.org/namespaces/inkscape"
   version="1.1"
   id="svg193"
   width="266.59341"
   height="263.95328"
   viewBox="0 0 266.59342 263.95328"
   sodipodi:docname="service-icon-3.svg"
   inkscape:version="0.92.4 (unknown)">
  <path
     d="m 210.17387,244.08394 -19.71082,-19.86934 2.13271,-4.1242 c 2.11357,-4.0872 2.08961,-4.16606 -2.6698,-8.78808 -3.7398,-3.63185 -5.31987,-4.38698 -7.14056,-3.41258 -4.23083,2.26426 -5.97799,5.5559 -6.18376,11.65016 -0.1184,3.50537 -0.98051,6.50192 -2.06895,7.19106 -1.02632,0.64982 -27.77317,1.19068 -59.43745,1.20191 -50.57784,0.018 -57.82595,-0.23411 -59.66667,-2.07483 -1.72972,-1.72972 -2.09524,-5.80756 -2.09524,-23.37517 0,-16.91618 -0.37927,-21.42549 -1.84955,-21.98968 -1.01725,-0.39036 -6.86725,0.15319 -13,1.20788 -16.40079,2.82055 -15.59938,3.70358 -19.13269,-21.08112 -1.14998,-8.06666 -3.53401,-23.36666 -5.29783,-34 C 12.28944,115.98662 9.86002,100.68662 8.65455,92.619963 7.44908,84.553296 5.94682,75.553296 5.3162,72.619963 4.68558,69.68663 3.75395,63.53663 3.24592,58.953297 2.73789,54.369963 1.79972,50.619963 1.16111,50.619963 0.5225,50.619963 0,47.684157 0,44.095949 c 0,-4.982855 0.5512,-6.735844 2.33333,-7.420727 2.4838,-0.954536 18.77853,-3.922733 32.6239,-5.942669 14.0554,-2.050577 77.53429,-12.206903 80.3761,-12.859801 1.46667,-0.336962 3.46298,-0.09265 4.43624,0.542902 1.77171,1.156948 6.88431,24.302642 6.89266,31.204309 0.008,6.704938 3.48503,3.902162 14.88635,-11.999999 C 169.5724,-1.466678 168.30676,0.05252223 172.88889,8.8223029e-4 175.2111,-0.02528777 177.3111,0.53402523 177.55556,1.2438032 177.98668,2.4956162 194.7055,14.741912 243.14437,49.28663 l 23.37012,16.666666 0.0761,5.555556 c 0.0419,3.055555 -0.38587,5.755555 -0.95045,6 -0.56464,0.244444 -6.46542,7.944444 -13.11287,17.111111 -6.64745,9.166657 -20.19008,27.766657 -30.09472,41.333327 -17.47641,23.93794 -18.03335,24.90857 -18.85156,32.85477 -0.95173,9.24293 -5.0666,21.28409 -8.96876,26.24488 -3.52546,4.48189 -3.29942,6.40976 1.26411,10.7819 3.68737,3.53272 4.11351,3.62804 8.74028,1.95498 l 4.8639,-1.75882 19.92639,20.04911 c 10.95952,11.02701 19.92639,20.74648 19.92639,21.59883 0,2.47688 -14.48612,16.27434 -17.08663,16.27434 -1.29909,0 -11.23187,-8.9412 -22.07283,-19.86934 z m 26.5496,6.47324 c 2.44191,-2.69828 2.29202,-2.90755 -13.12685,-18.32642 -13.28707,-13.28706 -15.94249,-15.38036 -17.93013,-14.13438 -5.09207,3.19204 -3.40532,6.27761 11.41522,20.88213 7.98587,7.86945 15.11644,14.30811 15.84571,14.30811 0.72927,0 2.43749,-1.22826 3.79605,-2.72944 z M 136,218.19863 c 0,-0.96505 -3.45,-3.16524 -7.66667,-4.88931 -5.54196,-2.26594 -10.13303,-5.65957 -16.56614,-12.24536 l -8.89947,-9.11067 H 92.24318 c -8.58197,0 -10.78456,-0.41699 -11.45687,-2.169 -1.45617,-3.79472 1.75511,-5.69279 10.32658,-6.10364 7.86963,-0.37722 8.20739,-0.53628 7.91469,-3.72736 -0.16816,-1.83334 -0.54417,-7.23334 -0.83557,-12 -0.2914,-4.76667 -0.60381,-9.11667 -0.69425,-9.66667 -0.0904,-0.55 -3.39096,-1 -7.3345,-1 -8.12892,0 -11.76113,-2.46812 -8.82993,-6 1.1111,-1.3388 4.14049,-2.00675 9.16326,-2.02041 8.95356,-0.0244 9.69503,-0.43562 13.18492,-7.31292 1.48852,-2.93334 5.54058,-8.12502 9.00457,-11.53706 3.46399,-3.41205 5.91441,-6.82465 5.44538,-7.58357 -0.55564,-0.89904 -6.5517,-1.11058 -17.2077,-0.60708 -14.17217,0.66963 -16.65221,0.47544 -18.58267,-1.45502 -2.74927,-2.74926 -1.70465,-5.92489 2.27778,-6.92442 3.1792,-0.79793 75.53151,0.0312 80.04779,0.91727 2.45558,0.48179 2.72396,-0.37394 3.39038,-10.81012 0.39804,-6.233327 0.26289,-12.683327 -0.30034,-14.333327 l -1.02404,-3.000001 H 115.633 c -37.96641,0 -51.51089,0.41122 -52.69967,1.6 -1.19927,1.199271 -1.6,17.371418 -1.6,64.571418 0,55.46897 0.24963,63.22105 2.09524,65.06666 1.79906,1.79906 7.07648,2.09524 37.33333,2.09524 28.24394,0 35.2381,-0.34826 35.2381,-1.75465 z m 26.62921,-9.69108 c 12.65536,-3.75824 21.86119,-11.41642 28.35892,-23.59133 2.51013,-4.70331 3.00511,-7.71379 3.00819,-18.29627 0.003,-10.74818 -0.4906,-13.67113 -3.25979,-19.29856 -13.01929,-26.45726 -47.69184,-33.50408 -69.71377,-14.16857 -9.33272,8.19424 -16.78955,26.05208 -15.15273,36.28821 4.68042,29.26974 30.32105,46.9178 56.75918,39.06652 z m -21.30451,-8.38396 c -10.53209,-3.46454 -21.51964,-13.85856 -23.96814,-22.67341 -2.34383,-8.43801 -1.61611,-18.89279 1.82116,-26.16356 12.36433,-26.15403 49.76066,-26.37678 62.71861,-0.37359 8.30083,16.6576 1.17592,37.8912 -15.61835,46.54576 -5.57593,2.87344 -19.7255,4.38449 -24.95328,2.6648 z m 21.54147,-10.29301 c 1.94307,-0.99405 5.66813,-4.30196 8.27792,-7.35092 9.86912,-11.52984 7.48601,-28.13585 -5.45416,-38.00581 -6.74039,-5.14115 -18.76269,-6.06812 -26.63208,-2.05346 -10.60223,5.40886 -15.99001,15.46523 -14.5952,27.24219 2.123,17.92539 22.18896,28.46324 38.40352,20.168 z m -17.46211,-7.79207 c -2.12716,-2.56306 -0.44633,-5.50369 7.14603,-12.50209 6.64168,-6.12208 7.69133,-6.50537 10.04584,-3.66836 2.12716,2.56307 0.44633,5.50369 -7.14603,12.50209 -6.64168,6.12208 -7.69133,6.50538 -10.04584,3.66836 z m -5.9233,-17.51514 c -1.12555,-2.93316 0.71906,-5.8523 7.85402,-12.42907 3.8154,-3.51691 6.94722,-5.39561 8.19583,-4.91647 1.11145,0.4265 2.27175,0.77546 2.57844,0.77546 0.30668,0 0.55761,1.07049 0.55761,2.37888 0,2.94932 -13.29328,16.28778 -16.23261,16.28778 -1.18181,0 -2.51079,-0.94346 -2.95329,-2.09658 z m -88.57081,5.96638 c 2.23895,-1.19825 2.47866,-2.72338 2.13912,-13.60964 -0.38027,-12.19162 -0.40235,-12.26246 -3.9515,-12.67264 -4.85145,-0.56068 -7.31465,-3.58277 -5.09757,-6.25418 0.91292,-1.1 2.66638,-2 3.89659,-2 4.3662,0 5.43674,-2.94052 5.43674,-14.93334 0,-8.38637 -0.47542,-11.79291 -1.66666,-11.9422 -0.91667,-0.11488 -4.06667,-0.26488 -7,-0.33334 -4.74028,-0.11062 -5.33334,-0.48848 -5.33334,-3.39811 0,-2.73479 0.86071,-3.45248 5.22892,-4.36006 7.68981,-1.597697 8.77108,-3.027237 8.77108,-11.596207 0,-4.163537 0.72,-8.29007 1.6,-9.17007 1.13915,-1.139144 9.3806,-1.6 28.61271,-1.6 h 27.01271 l 3.2591,-3.514794 c 6.74944,-7.278967 6.92571,-8.411246 4.2904,-27.558974 -1.51033,-10.973739 -3.12561,-18.157678 -4.29322,-19.094011 -1.39162,-1.115973 -4.34478,-1.069664 -11.51013,0.180493 -10.19676,1.779055 -20.01325,3.345384 -62.97157,10.047809 -14.66666,2.288318 -27.42027,4.885866 -28.34134,5.772328 -1.34224,1.2918 -1.15377,4.644545 0.94941,16.889449 4.06936,23.692196 5.13436,30.21563 7.39193,45.277687 2.75787,18.39994 4.54329,29.18964 6.80807,41.14262 1.02223,5.3951 1.8586,11.80605 1.8586,14.24653 0,2.44049 0.61603,6.05753 1.36895,8.03787 1.35014,3.55113 1.49022,3.58818 10.19422,2.69642 4.8539,-0.49729 9.95995,-1.51142 11.34678,-2.25364 z M 33.6,73.019963 c -1.89731,-1.897315 -2.08365,-4.610376 -0.3886,-5.657977 1.61951,-1.00091 58.44443,-10.058453 63.16378,-10.067919 4.35845,-0.0088 6.19924,3.322899 3.38879,6.133349 -1.19341,1.193412 -10.32601,3.186782 -23.84899,5.205515 C 63.86174,70.432259 50.4,72.511955 46,73.254476 35.89917,74.959044 35.53214,74.952103 33.6,73.019963 Z m 191.10247,45.445647 c 11.71364,-16.21822 24.14752,-33.094687 27.63086,-37.50327 3.48333,-4.408581 6.33333,-8.462497 6.33333,-9.008701 0,-0.546205 -10.31028,-8.419729 -22.91175,-17.496721 -12.60145,-9.076992 -31.3489,-22.653621 -41.66098,-30.170287 -10.31209,-7.516667 -19.7328,-13.666667 -20.93491,-13.666667 -1.20212,0 -3.24426,1.65 -4.5381,3.666667 -4.16044,6.484729 -38.31366,52.881815 -41.52107,56.406291 -5.84748,6.425533 -4.42003,7.927041 7.53608,7.927041 9.87368,0 10.79245,-0.238891 12.82001,-3.333334 2.74246,-4.185522 4.76476,-4.185522 10.92431,0 3.32281,2.257911 6.72621,3.333334 10.54901,3.333334 5.92086,0 8.40407,2.28383 8.40407,7.729286 0,1.723491 4.60179,5.947794 13.95705,12.812154 7.67638,5.632477 14.32803,10.841137 14.78145,11.574787 1.01154,1.6367 -1.78026,5.2171 -4.06802,5.2171 -0.91831,0 -6.26547,-3.35628 -11.88256,-7.4584 -5.61709,-4.10212 -11.01813,-7.14941 -12.00229,-6.77175 -1.3095,0.5025 -1.65768,2.92043 -1.29828,9.01556 0.48293,8.19007 0.62054,8.45294 8.2569,15.77174 4.27118,4.09357 9.47138,10.59285 11.556,14.44285 2.08463,3.85 4.46099,7 5.2808,7 0.81981,0 11.07445,-13.26946 22.78809,-29.48768 z m -9.36914,-35.052131 c -2.2,-1.694695 -13,-9.55402 -24,-17.465165 -21.56189,-15.507205 -23.5276,-17.270681 -22.43244,-20.124616 1.39203,-3.627553 6.07613,-1.7708 19.51721,7.736501 29.53119,20.888342 38.24856,27.830301 38.24856,30.458706 0,3.671132 -6.21247,3.339263 -11.33333,-0.605426 z"
     id="path240"
     inkscape:connector-curvature="0" />
</svg>
