<?xml version="1.0" encoding="UTF-8" standalone="no"?>
<!-- Created with Inkscape (http://www.inkscape.org/) -->

<svg
   xmlns:dc="http://purl.org/dc/elements/1.1/"
   xmlns:cc="http://creativecommons.org/ns#"
   xmlns:rdf="http://www.w3.org/1999/02/22-rdf-syntax-ns#"
   xmlns:svg="http://www.w3.org/2000/svg"
   xmlns="http://www.w3.org/2000/svg"
   xmlns:sodipodi="http://sodipodi.sourceforge.net/DTD/sodipodi-0.dtd"
   xmlns:inkscape="http://www.inkscape.org/namespaces/inkscape"
   version="1.1"
   id="svg521"
   width="471.09009"
   height="471.56985"
   viewBox="0 0 471.09009 471.56985"
   sodipodi:docname="soc-icon-1.svg"
   inkscape:version="0.92.4 (unknown)">
  <path
     d="m 221.1599,470.96018 c -1.65,-0.19996 -8.85,-1.07275 -16,-1.93954 C 127.31163,459.58317 57.161769,408.75903 23.109159,337.1234 -7.7405908,272.22566 -7.7014908,198.7537 23.217349,133.80846 46.006299,85.940037 85.976539,45.969797 133.84496,23.180847 c 70.87061,-33.739716 152.53289,-30.4965148 219.97671,8.73633 34.64871,20.15556 63.08043,48.1926 83.87047,82.706223 40.88222,67.86871 44.46721,152.98576 9.45558,224.5 -29.09265,59.42422 -82.98783,104.62032 -146.48782,122.84361 -24.82637,7.12469 -61.07851,11.22559 -79.5,8.99317 z m 33.5,-164.83678 v -69.5 h 20.5 c 11.275,0 20.50515,-0.3375 20.51144,-0.75 0.006,-0.4125 1.12615,-12.675 2.48856,-27.25 1.36241,-14.575 2.48226,-26.8375 2.48856,-27.25 0.006,-0.4125 -9.88856,-0.75 -21.98856,-0.75 h -22 v -13.54966 c 0,-21.68566 0.90152,-22.45034 26.46788,-22.45034 h 16.53212 v -24 -24.000003 h -24.91203 c -28.87315,0 -36.7387,1.07937 -47.90299,6.573613 -9.56134,4.70539 -16.93208,12.08575 -21.58319,21.61137 -5.6117,11.49297 -6.71141,17.1689 -7.22976,37.31502 l -0.46312,18 -13.45446,0.27822 -13.45445,0.27822 v 27.97178 27.97178 h 14 14 v 69.5 69.5 h 28 28 z"
     id="path531"
     inkscape:connector-curvature="0" />
</svg>
