<?xml version="1.0" encoding="UTF-8" standalone="no"?>
<!-- Created with Inkscape (http://www.inkscape.org/) -->

<svg
   xmlns:dc="http://purl.org/dc/elements/1.1/"
   xmlns:cc="http://creativecommons.org/ns#"
   xmlns:rdf="http://www.w3.org/1999/02/22-rdf-syntax-ns#"
   xmlns:svg="http://www.w3.org/2000/svg"
   xmlns="http://www.w3.org/2000/svg"
   xmlns:sodipodi="http://sodipodi.sourceforge.net/DTD/sodipodi-0.dtd"
   xmlns:inkscape="http://www.inkscape.org/namespaces/inkscape"
   version="1.1"
   id="svg64"
   width="319.38229"
   height="319.80069"
   viewBox="0 0 319.38229 319.80069"
   sodipodi:docname="soc-icon-2.svg"
   inkscape:version="0.92.4 (unknown)">
  <path
     d="M 144.4024,319.29098 C 100.86106,313.94212 64.446359,294.9042 38.235599,263.78605 5.5898093,225.02806 -6.7207507,176.18713 3.5073093,126.00504 9.9744893,94.274984 29.463739,61.214574 54.430759,39.621514 100.85635,-0.53029645 163.92254,-10.995416 220.6608,12.037524 c 5.09212,2.06715 12.44415,5.59518 16.33784,7.84006 3.8937,2.24488 7.24494,4.0816 7.4472,4.0816 1.05411,0 12.99801,8.98556 20.33023,15.29471 26.78407,23.04686 46.16823,57.10178 52.76815,92.705286 2.46355,13.2897 2.44798,41.81422 -0.0302,55.39819 -8.20817,44.99191 -33.2188,82.54279 -71.49888,107.34817 -25.27013,16.37497 -56.72532,25.43299 -87.11271,25.08549 -6.325,-0.0723 -12.85,-0.29736 -14.5,-0.50005 z m -2.29077,-71.80906 c 43.15289,-7.52523 79.32754,-38.05142 94.23735,-79.52274 3.78703,-10.53354 6.34213,-23.82999 7.13828,-37.14683 l 0.68127,-11.3952 10.79038,-11.47221 c 5.93471,-6.30971 10.64768,-11.614896 10.47327,-11.789306 -0.17441,-0.17441 -5.13781,1.08718 -11.02978,2.80355 -5.89197,1.716366 -10.93856,2.894766 -11.21466,2.618666 -0.2761,-0.27609 2.69675,-6.094266 6.60633,-12.929276 3.90958,-6.83502 7.10833,-12.6962 7.10833,-13.02485 0,-0.32866 -2.8125,1.35623 -6.25,3.7442 -6.1887,4.29917 -13.92056,8.59126 -15.47649,8.59126 -0.44339,0 -3.27382,-2.27109 -6.28984,-5.04688 -3.01602,-2.77578 -8.40867,-6.46591 -11.98367,-8.2003 -5.56657,-2.70057 -7.86425,-3.21133 -16,-3.55667 -11.50134,-0.4882 -18.19744,1.19288 -26.73744,6.71255 -13.04769,8.43312 -21.25144,24.512356 -19.91805,39.039076 0.33078,3.60372 0.89107,7.56472 1.24508,8.80222 0.6121,2.13964 0.37249,2.25 -4.88499,2.25 -17.04864,0 -42.50118,-9.26807 -60.704601,-22.10446 -4.125,-2.9088 -11.84464,-9.501636 -17.15475,-14.650746 -5.40853,-5.24455 -9.93739,-8.90472 -10.29739,-8.32223 -4.28225,6.92883 -5.80116,22.780846 -3.1404,32.774746 1.54778,5.81354 6.94321,15.15374 11.55224,19.99846 1.67217,1.75767 3.0403,3.50785 3.0403,3.88929 0,1.19624 -9.47515,-0.36713 -13.31086,-2.19626 -2.01521,-0.96098 -3.95895,-1.45232 -4.31942,-1.09185 -1.13189,1.13188 1.53207,11.89836 4.49841,18.18051 3.90266,8.26511 11.71163,15.70142 21.54959,20.52121 7.66436,3.75491 7.82436,3.90469 5,4.68073 -1.60474,0.44094 -5.52493,0.7269 -8.71152,0.63547 -5.52023,-0.15838 -5.7621,-0.0635 -5.12235,2.00945 2.26209,7.3298 11.76547,18.45193 19.77923,23.14831 2.38517,1.3978 7.555301,3.35884 11.489181,4.35786 l 7.15251,1.8164 -2.25238,2.06923 c -2.67311,2.45574 -14.866831,8.66745 -21.305631,10.85347 -7.23363,2.45589 -19.0042,4.42588 -26.78473,4.48286 -7.01437,0.0514 -7.11274,0.0874 -4.77152,1.75 10.93083,7.76219 28.5999,14.45503 45.109491,17.08695 9.03316,1.44004 30.99738,1.23976 40.20923,-0.36666 z"
     id="path74"
     inkscape:connector-curvature="0" />
</svg>
