<?xml version="1.0" encoding="UTF-8" standalone="no"?>
<!-- Created with Inkscape (http://www.inkscape.org/) -->

<svg
   xmlns:dc="http://purl.org/dc/elements/1.1/"
   xmlns:cc="http://creativecommons.org/ns#"
   xmlns:rdf="http://www.w3.org/1999/02/22-rdf-syntax-ns#"
   xmlns:svg="http://www.w3.org/2000/svg"
   xmlns="http://www.w3.org/2000/svg"
   xmlns:sodipodi="http://sodipodi.sourceforge.net/DTD/sodipodi-0.dtd"
   xmlns:inkscape="http://www.inkscape.org/namespaces/inkscape"
   version="1.1"
   id="svg367"
   width="225.63988"
   height="224.36264"
   viewBox="0 0 225.63988 224.36264"
   sodipodi:docname="soc-icon-3.svg"
   inkscape:version="0.92.4 (unknown)">
  <path
     d="M 89.833835,222.42911 C 39.673985,211.66079 3.0141254,169.12158 0.17796544,118.39461 -2.8148346,64.866108 32.213355,16.815467 84.556485,2.646642 93.476165,0.232163 95.956655,0 112.83384,0 c 16.87718,0 19.35767,0.232163 28.27735,2.646642 52.46046,14.200585 87.50451,62.3731 84.32933,115.921378 -3.02986,51.09741 -39.66719,93.34923 -90.10668,103.91504 -12.06681,2.5277 -33.59333,2.50217 -45.500005,-0.0539 z m 66.568505,-48.50578 c 6.10201,-1.82049 11.78835,-6.41093 14.71052,-11.87545 2.17418,-4.06575 2.22777,-5.01723 2.54332,-45.15327 0.38282,-48.693058 0.29802,-49.367384 -7.17179,-57.034259 -3.61068,-3.705934 -6.4233,-5.624303 -9.40762,-6.416536 -2.93548,-0.779266 -17.52648,-1.039934 -47,-0.839654 -47.542075,0.32306 -45.501295,0.03693 -52.632045,7.379236 -6.45057,6.641932 -6.61342,7.985001 -6.58893,54.339353 0.0209,39.65847 0.11572,41.77898 2.05895,46.07186 3.35986,7.4224 9.00799,12.26071 16.41909,14.06493 1.65,0.40169 20.80582,0.77641 42.568505,0.83271 32.15249,0.0832 40.49277,-0.17339 44.5,-1.36892 z m -85.180755,-11.2164 c -1.16174,-0.22843 -3.41174,-1.77095 -5,-3.42783 l -2.88775,-3.0125 -0.29523,-27.436 -0.29522,-27.43599 h 9.06428 9.06427 l -0.76905,2.75 c -0.42298,1.5125 -0.76905,6.13652 -0.76905,10.2756 0,13.42099 7.22903,24.29241 20.07966,30.19692 7.258315,3.335 18.865865,3.15782 26.568305,-0.40554 7.18907,-3.32586 13.33766,-9.472 16.67566,-16.66902 2.07709,-4.47836 2.62544,-7.20108 2.64797,-13.14796 0.0156,-4.125 -0.31766,-8.7375 -0.74064,-10.25 l -0.76905,-2.75 h 9.01905 9.01905 l -0.004,26.25 c -0.004,24.56493 -0.13329,26.46249 -2.02189,29.56018 -3.70321,6.07398 -4.73141,6.20449 -47.69225,6.05364 -21.330175,-0.0749 -39.732635,-0.32308 -40.894375,-0.5515 z m 31.618445,-29.98971 c -12.831535,-6.59258 -16.057655,-22.36078 -6.745015,-32.96729 10.351865,-11.79012 29.258855,-9.07633 35.842965,5.14468 6.09579,13.16629 -3.59939,29.10344 -18.39861,30.24403 -4.24597,0.32724 -6.21823,-0.11911 -10.69934,-2.42142 z M 138.83384,76.85963 V 66.324644 l 10.25,0.284983 10.25,0.284983 0.28498,10.25 0.28499,10.25 h -10.53499 -10.53498 z"
     id="path377"
     inkscape:connector-curvature="0" />
</svg>
